{
  "source": "C:\\Users\\Peter\\Desktop\\stuff\\MIUN\\quantitative_research\\video_compression\\videos\\BVI-HD\\BVI-HD_CDVL_videos\\ORIG\\TreeTrunk_1920x1080_50fps.mp4",
  "output": "C:\\Users\\Peter\\Desktop\\stuff\\MIUN\\quantitative_research\\video_compression\\compressed_videos\\BVI-HD\\hevc\\8\\TreeTrunk_1920x1080_50fps_hevc.mp4",
  "codec": "hevc",
  "ok": "Input #0, mov,mp4,m4a,3gp,3g2,mj2, from 'C:\\Users\\Peter\\Desktop\\stuff\\MIUN\\quantitative_research\\video_compression\\videos\\BVI-HD\\BVI-HD_CDVL_videos\\ORIG\\TreeTrunk_1920x1080_50fps.mp4':\n  Metadata:\n    major_brand     : isom\n    minor_version   : 512\n    compatible_brands: isomiso2avc1mp41\n    encoder         : Lavf54.28.101\n  Duration: 00:00:05.00, start: 0.000000, bitrate: 622415 kb/s\n  Stream #0:0[0x1](und): Video: h264 (High 4:4:4 Predictive) (avc1 / 0x31637661), yuv420p(progressive), 1920x1080, 622410 kb/s, 50 fps, 50 tbr, 50 tbn (default)\n    Metadata:\n      handler_name    : VideoHandler\n      vendor_id       : [0][0][0][0]\n[out#0/mp4 @ 0000020fdafe7d80] Codec AVOption b:a (set bitrate (in bits/s)) has not been used for any stream. The most likely reason is either wrong type (e.g. a video option with no video streams) or that it is a private option of some decoder which was not actually used for any stream.\nStream mapping:\n  Stream #0:0 -> #0:0 (h264 (native) -> hevc (libx265))\nPress [q] to stop, [?] for help\n[libx265 @ 0000020fdbc70b40] Unknown option: \"aq-mode.\nx265 [info]: HEVC encoder version 4.1+190-8f11c33ac\nx265 [info]: build info [Windows][GCC 15.1.0][64 bit] 10bit\nx265 [info]: using cpu capabilities: MMX2 SSE2Fast LZCNT SSSE3 SSE4.2 AVX FMA3 BMI2 AVX2\nx265 [info]: Main 10 profile, Level-4.1 (Main tier)\nx265 [info]: Thread pool created using 12 threads\nx265 [info]: Slices                              : 1\nx265 [info]: frame threads / pool features       : 3 / wpp(17 rows)\nx265 [info]: Coding QT: max CU size, min CU size : 64 / 8\nx265 [info]: Residual QT: max TU size, max depth : 32 / 1 inter / 1 intra\nx265 [info]: ME / range / subpel / merge         : star / 57 / 3 / 3\nx265 [info]: Keyframe min / max / scenecut / bias  : 25 / 250 / 40 / 5.00 \nx265 [info]: Lookahead / bframes / badapt        : 25 / 4 / 2\nx265 [info]: b-pyramid / weightp / weightb       : 1 / 1 / 0\nx265 [info]: References / ref-limit  cu / depth  : 4 / on / on\nx265 [info]: AQ: mode / str / qg-size / cu-tree  : 2 / 1.0 / 32 / 1\nx265 [info]: Rate Control / qCompress            : ABR-8000 kbps / 0.60\nx265 [info]: VBV/HRD buffer / max-rate / init    : 8000 / 8000 / 0.750\nx265 [info]: tools: rect limit-modes rd=4 psy-rd=2.00 rdoq=2 psy-rdoq=1.00\nx265 [info]: tools: rskip mode=1 signhide tmvp strong-intra-smoothing lslices=4\nx265 [info]: tools: deblock sao dhdr10-info\nOutput #0, mp4, to 'C:\\Users\\Peter\\Desktop\\stuff\\MIUN\\quantitative_research\\video_compression\\compressed_videos\\BVI-HD\\hevc\\8\\TreeTrunk_1920x1080_50fps_hevc.mp4':\n  Metadata:\n    major_brand     : isom\n    minor_version   : 512\n    compatible_brands: isomiso2avc1mp41\n    encoder         : Lavf62.3.100\n  Stream #0:0(und): Video: hevc (hev1 / 0x31766568), yuv420p10le(tv, progressive), 1920x1080, q=2-31, 8000 kb/s, 50 fps, 12800 tbn (default)\n    Metadata:\n      encoder         : Lavc62.11.100 libx265\n      handler_name    : VideoHandler\n      vendor_id       : [0][0][0][0]\n    Side data:\n      cpb: bitrate max/min/avg: 8000000/0/8000000 buffer size: 8000000 vbv_delay: N/A\nframe=    0 fps=0.0 q=0.0 size=       0KiB time=N/A bitrate=N/A speed=N/A elapsed=0:00:01.18    \nframe=    0 fps=0.0 q=0.0 size=       0KiB time=N/A bitrate=N/A speed=N/A elapsed=0:00:01.71    \nframe=    0 fps=0.0 q=0.0 size=       0KiB time=N/A bitrate=N/A speed=N/A elapsed=0:00:02.27    \nframe=    0 fps=0.0 q=0.0 size=       0KiB time=N/A bitrate=N/A speed=N/A elapsed=0:00:02.82    \nframe=    0 fps=0.0 q=0.0 size=       0KiB time=N/A bitrate=N/A speed=N/A elapsed=0:00:03.34    \nframe=    0 fps=0.0 q=0.0 size=       0KiB time=N/A bitrate=N/A speed=N/A elapsed=0:00:03.85    \nframe=    0 fps=0.0 q=0.0 size=       0KiB time=N/A bitrate=N/A speed=N/A elapsed=0:00:04.37    \nframe=    0 fps=0.0 q=0.0 size=       0KiB time=N/A bitrate=N/A speed=N/A elapsed=0:00:04.89    \nframe=    0 fps=0.0 q=0.0 size=       0KiB time=N/A bitrate=N/A speed=N/A elapsed=0:00:05.41    \nframe=    0 fps=0.0 q=0.0 size=       0KiB time=N/A bitrate=N/A speed=N/A elapsed=0:00:05.97    \nframe=    0 fps=0.0 q=0.0 size=       0KiB time=N/A bitrate=N/A speed=N/A elapsed=0:00:06.53    \nframe=    0 fps=0.0 q=0.0 size=       0KiB time=N/A bitrate=N/A speed=N/A elapsed=0:00:07.09    \nframe=    0 fps=0.0 q=0.0 size=       0KiB time=N/A bitrate=N/A speed=N/A elapsed=0:00:07.64    \nframe=    0 fps=0.0 q=0.0 size=       0KiB time=N/A bitrate=N/A speed=N/A elapsed=0:00:08.21    \nframe=    0 fps=0.0 q=0.0 size=       0KiB time=N/A bitrate=N/A speed=N/A elapsed=0:00:08.80    \nframe=    0 fps=0.0 q=0.0 size=       0KiB time=N/A bitrate=N/A speed=N/A elapsed=0:00:09.35    \nframe=    0 fps=0.0 q=0.0 size=       0KiB time=N/A bitrate=N/A speed=N/A elapsed=0:00:09.95    \nframe=    0 fps=0.0 q=0.0 size=       0KiB time=N/A bitrate=N/A speed=N/A elapsed=0:00:10.57    \nframe=    0 fps=0.0 q=0.0 size=       0KiB time=N/A bitrate=N/A speed=N/A elapsed=0:00:11.15    \nframe=    0 fps=0.0 q=0.0 size=       0KiB time=N/A bitrate=N/A speed=N/A elapsed=0:00:11.75    \nframe=    0 fps=0.0 q=0.0 size=       0KiB time=N/A bitrate=N/A speed=N/A elapsed=0:00:12.32    \nframe=    0 fps=0.0 q=0.0 size=       0KiB time=N/A bitrate=N/A speed=N/A elapsed=0:00:12.85    \nframe=    0 fps=0.0 q=0.0 size=       0KiB time=N/A bitrate=N/A speed=N/A elapsed=0:00:13.40    \nframe=    0 fps=0.0 q=0.0 size=       0KiB time=N/A bitrate=N/A speed=N/A elapsed=0:00:14.01    \nframe=    0 fps=0.0 q=0.0 size=       0KiB time=N/A bitrate=N/A speed=N/A elapsed=0:00:14.55    \nframe=    0 fps=0.0 q=0.0 size=       0KiB time=N/A bitrate=N/A speed=N/A elapsed=0:00:15.09    \nframe=    0 fps=0.0 q=0.0 size=       0KiB time=N/A bitrate=N/A speed=N/A elapsed=0:00:15.62    \nframe=    0 fps=0.0 q=0.0 size=       0KiB time=N/A bitrate=N/A speed=N/A elapsed=0:00:16.22    \nframe=    0 fps=0.0 q=0.0 size=       0KiB time=N/A bitrate=N/A speed=N/A elapsed=0:00:16.78    \nframe=    0 fps=0.0 q=0.0 size=       0KiB time=N/A bitrate=N/A speed=N/A elapsed=0:00:17.30    \nframe=    0 fps=0.0 q=0.0 size=       0KiB time=N/A bitrate=N/A speed=N/A elapsed=0:00:17.91    \nframe=    0 fps=0.0 q=0.0 size=       0KiB time=N/A bitrate=N/A speed=N/A elapsed=0:00:18.50    \nframe=    0 fps=0.0 q=0.0 size=       0KiB time=N/A bitrate=N/A speed=N/A elapsed=0:00:19.11    \nframe=    0 fps=0.0 q=0.0 size=       0KiB time=N/A bitrate=N/A speed=N/A elapsed=0:00:19.72    \nframe=    0 fps=0.0 q=0.0 size=       0KiB time=N/A bitrate=N/A speed=N/A elapsed=0:00:20.29    \nframe=    0 fps=0.0 q=0.0 size=       0KiB time=N/A bitrate=N/A speed=N/A elapsed=0:00:20.84    \nframe=    0 fps=0.0 q=0.0 size=       0KiB time=N/A bitrate=N/A speed=N/A elapsed=0:00:21.42    \nframe=    0 fps=0.0 q=0.0 size=       0KiB time=N/A bitrate=N/A speed=N/A elapsed=0:00:22.02    \nframe=    0 fps=0.0 q=0.0 size=       0KiB time=N/A bitrate=N/A speed=N/A elapsed=0:00:22.60    \nframe=    0 fps=0.0 q=0.0 size=       0KiB time=N/A bitrate=N/A speed=N/A elapsed=0:00:23.25    \nframe=    0 fps=0.0 q=0.0 size=       0KiB time=N/A bitrate=N/A speed=N/A elapsed=0:00:23.87    \nframe=    0 fps=0.0 q=0.0 size=       0KiB time=N/A bitrate=N/A speed=N/A elapsed=0:00:24.44    \nframe=    0 fps=0.0 q=0.0 size=       0KiB time=N/A bitrate=N/A speed=N/A elapsed=0:00:24.95    \nframe=    0 fps=0.0 q=0.0 size=       0KiB time=N/A bitrate=N/A speed=N/A elapsed=0:00:25.58    \nframe=    0 fps=0.0 q=0.0 size=       0KiB time=N/A bitrate=N/A speed=N/A elapsed=0:00:26.16    \nframe=    0 fps=0.0 q=0.0 size=       0KiB time=N/A bitrate=N/A speed=N/A elapsed=0:00:26.78    \nframe=    0 fps=0.0 q=0.0 size=       0KiB time=N/A bitrate=N/A speed=N/A elapsed=0:00:27.38    \nframe=    1 fps=0.0 q=29.1 size=       0KiB time=-00:00:00.02 bitrate=N/A speed=N/A elapsed=0:00:27.90    \nframe=    1 fps=0.0 q=29.1 size=       0KiB time=-00:00:00.02 bitrate=N/A speed=N/A elapsed=0:00:28.48    \nframe=    1 fps=0.0 q=29.1 size=       0KiB time=-00:00:00.02 bitrate=N/A speed=N/A elapsed=0:00:29.10    \nframe=    1 fps=0.0 q=29.1 size=       0KiB time=-00:00:00.02 bitrate=N/A speed=N/A elapsed=0:00:29.69    \nframe=    2 fps=0.1 q=39.5 size=       0KiB time=00:00:00.00 bitrate=N/A speed=   0x elapsed=0:00:30.27    \nframe=    2 fps=0.1 q=39.5 size=       0KiB time=00:00:00.00 bitrate=N/A speed=   0x elapsed=0:00:30.90    \nframe=    3 fps=0.1 q=43.9 size=       0KiB time=00:00:00.02 bitrate=  17.6kbits/s speed=0.000636x elapsed=0:00:31.42    \nframe=    3 fps=0.1 q=43.9 size=       0KiB time=00:00:00.02 bitrate=  17.6kbits/s speed=0.000625x elapsed=0:00:31.99    \nframe=    3 fps=0.1 q=43.9 size=       0KiB time=00:00:00.02 bitrate=  17.6kbits/s speed=0.000614x elapsed=0:00:32.57    \nframe=    4 fps=0.1 q=45.0 size=       0KiB time=00:00:00.04 bitrate=   8.8kbits/s speed=0.00121x elapsed=0:00:33.11    \nframe=    4 fps=0.1 q=45.0 size=       0KiB time=00:00:00.04 bitrate=   8.8kbits/s speed=0.00119x elapsed=0:00:33.68    \nframe=    4 fps=0.1 q=45.0 size=       0KiB time=00:00:00.04 bitrate=   8.8kbits/s speed=0.00117x elapsed=0:00:34.28    \nframe=    4 fps=0.1 q=45.0 size=       0KiB time=00:00:00.04 bitrate=   8.8kbits/s speed=0.00115x elapsed=0:00:34.85    \nframe=    4 fps=0.1 q=45.0 size=       0KiB time=00:00:00.04 bitrate=   8.8kbits/s speed=0.00113x elapsed=0:00:35.39    \nframe=    4 fps=0.1 q=45.0 size=       0KiB time=00:00:00.04 bitrate=   8.8kbits/s speed=0.00111x elapsed=0:00:35.98    \nframe=    4 fps=0.1 q=45.0 size=       0KiB time=00:00:00.04 bitrate=   8.8kbits/s speed=0.00109x elapsed=0:00:36.59    \nframe=    4 fps=0.1 q=45.0 size=       0KiB time=00:00:00.04 bitrate=   8.8kbits/s speed=0.00108x elapsed=0:00:37.14    \nframe=    5 fps=0.1 q=43.0 size=       0KiB time=00:00:00.06 bitrate=   5.9kbits/s speed=0.00159x elapsed=0:00:37.74    \nframe=    5 fps=0.1 q=43.0 size=       0KiB time=00:00:00.06 bitrate=   5.9kbits/s speed=0.00157x elapsed=0:00:38.32    \nframe=    5 fps=0.1 q=43.0 size=       0KiB time=00:00:00.06 bitrate=   5.9kbits/s speed=0.00154x elapsed=0:00:38.89    \nframe=    5 fps=0.1 q=43.0 size=       0KiB time=00:00:00.06 bitrate=   5.9kbits/s speed=0.00152x elapsed=0:00:39.45    \nframe=    5 fps=0.1 q=43.0 size=       0KiB time=00:00:00.06 bitrate=   5.9kbits/s speed=0.0015x elapsed=0:00:40.01    \nframe=    6 fps=0.1 q=42.0 size=       0KiB time=00:00:00.08 bitrate=   4.4kbits/s speed=0.00197x elapsed=0:00:40.59    \nframe=    6 fps=0.1 q=42.0 size=       0KiB time=00:00:00.08 bitrate=   4.4kbits/s speed=0.00194x elapsed=0:00:41.14    \nframe=    6 fps=0.1 q=42.0 size=       0KiB time=00:00:00.08 bitrate=   4.4kbits/s speed=0.00192x elapsed=0:00:41.69    \nframe=    6 fps=0.1 q=42.0 size=       0KiB time=00:00:00.08 bitrate=   4.4kbits/s speed=0.0019x elapsed=0:00:42.21    \nframe=    7 fps=0.2 q=31.2 size=       0KiB time=00:00:00.10 bitrate=   3.5kbits/s speed=0.00234x elapsed=0:00:42.78    \nframe=    7 fps=0.2 q=31.2 size=       0KiB time=00:00:00.10 bitrate=   3.5kbits/s speed=0.00231x elapsed=0:00:43.35    \nframe=    8 fps=0.2 q=36.7 size=     256KiB time=00:00:00.12 bitrate=17479.2kbits/s speed=0.00273x elapsed=0:00:43.90    \nframe=    8 fps=0.2 q=36.7 size=     256KiB time=00:00:00.12 bitrate=17479.2kbits/s speed=0.0027x elapsed=0:00:44.48    \nframe=    8 fps=0.2 q=36.7 size=     256KiB time=00:00:00.12 bitrate=17479.2kbits/s speed=0.00266x elapsed=0:00:45.11    \nframe=    8 fps=0.2 q=36.7 size=     256KiB time=00:00:00.12 bitrate=17479.2kbits/s speed=0.00263x elapsed=0:00:45.66    \nframe=    9 fps=0.2 q=35.9 size=     256KiB time=00:00:00.14 bitrate=14982.2kbits/s speed=0.00303x elapsed=0:00:46.21    \nframe=    9 fps=0.2 q=35.9 size=     256KiB time=00:00:00.14 bitrate=14982.2kbits/s speed=0.00299x elapsed=0:00:46.84    \nframe=    9 fps=0.2 q=35.9 size=     256KiB time=00:00:00.14 bitrate=14982.2kbits/s speed=0.00295x elapsed=0:00:47.44    \nframe=    9 fps=0.2 q=35.9 size=     256KiB time=00:00:00.14 bitrate=14982.2kbits/s speed=0.00292x elapsed=0:00:48.00    \nframe=    9 fps=0.2 q=35.9 size=     256KiB time=00:00:00.14 bitrate=14982.2kbits/s speed=0.00288x elapsed=0:00:48.55    \nframe=    9 fps=0.2 q=35.9 size=     256KiB time=00:00:00.14 bitrate=14982.2kbits/s speed=0.00285x elapsed=0:00:49.10    \nframe=   10 fps=0.2 q=35.0 size=     256KiB time=00:00:00.16 bitrate=13109.4kbits/s speed=0.00322x elapsed=0:00:49.64    \nframe=   10 fps=0.2 q=35.0 size=     256KiB time=00:00:00.16 bitrate=13109.4kbits/s speed=0.00319x elapsed=0:00:50.21    \nframe=   10 fps=0.2 q=35.0 size=     256KiB time=00:00:00.16 bitrate=13109.4kbits/s speed=0.00315x elapsed=0:00:50.75    \nframe=   10 fps=0.2 q=35.0 size=     256KiB time=00:00:00.16 bitrate=13109.4kbits/s speed=0.00312x elapsed=0:00:51.27    \nframe=   10 fps=0.2 q=35.0 size=     256KiB time=00:00:00.16 bitrate=13109.4kbits/s speed=0.00309x elapsed=0:00:51.79    \nframe=   10 fps=0.2 q=35.0 size=     256KiB time=00:00:00.16 bitrate=13109.4kbits/s speed=0.00306x elapsed=0:00:52.33    \nframe=   11 fps=0.2 q=34.7 size=     256KiB time=00:00:00.18 bitrate=11652.8kbits/s speed=0.0034x elapsed=0:00:52.88    \nframe=   11 fps=0.2 q=34.7 size=     256KiB time=00:00:00.18 bitrate=11652.8kbits/s speed=0.00337x elapsed=0:00:53.45    \nframe=   11 fps=0.2 q=34.7 size=     256KiB time=00:00:00.18 bitrate=11652.8kbits/s speed=0.00333x elapsed=0:00:54.04    \nframe=   12 fps=0.2 q=29.9 size=     256KiB time=00:00:00.20 bitrate=10487.5kbits/s speed=0.00366x elapsed=0:00:54.59    \nframe=   13 fps=0.2 q=33.6 size=     256KiB time=00:00:00.22 bitrate=9534.1kbits/s speed=0.00399x elapsed=0:00:55.14    \nframe=   14 fps=0.3 q=33.4 size=     256KiB time=00:00:00.24 bitrate=8739.6kbits/s speed=0.00431x elapsed=0:00:55.69    \nframe=   14 fps=0.2 q=33.4 size=     256KiB time=00:00:00.24 bitrate=8739.6kbits/s speed=0.00426x elapsed=0:00:56.28    \nframe=   14 fps=0.2 q=33.4 size=     256KiB time=00:00:00.24 bitrate=8739.6kbits/s speed=0.00422x elapsed=0:00:56.86    \nframe=   15 fps=0.3 q=35.0 size=     256KiB time=00:00:00.26 bitrate=8067.3kbits/s speed=0.00453x elapsed=0:00:57.44    \nframe=   15 fps=0.3 q=35.0 size=     256KiB time=00:00:00.26 bitrate=8067.3kbits/s speed=0.00448x elapsed=0:00:57.97    \nframe=   16 fps=0.3 q=35.0 size=     256KiB time=00:00:00.28 bitrate=7491.1kbits/s speed=0.00478x elapsed=0:00:58.53    \nframe=   17 fps=0.3 q=28.2 size=     256KiB time=00:00:00.30 bitrate=6991.7kbits/s speed=0.00507x elapsed=0:00:59.11    \nframe=   18 fps=0.3 q=35.9 size=     256KiB time=00:00:00.32 bitrate=6554.7kbits/s speed=0.00536x elapsed=0:00:59.66    \nframe=   18 fps=0.3 q=35.9 size=     256KiB time=00:00:00.32 bitrate=6554.7kbits/s speed=0.00532x elapsed=0:01:00.19    \nframe=   18 fps=0.3 q=35.9 size=     256KiB time=00:00:00.32 bitrate=6554.7kbits/s speed=0.00527x elapsed=0:01:00.73    \nframe=   19 fps=0.3 q=37.0 size=     256KiB time=00:00:00.34 bitrate=6169.1kbits/s speed=0.00555x elapsed=0:01:01.25    \nframe=   19 fps=0.3 q=37.0 size=     256KiB time=00:00:00.34 bitrate=6169.1kbits/s speed=0.0055x elapsed=0:01:01.78    \nframe=   19 fps=0.3 q=37.0 size=     256KiB time=00:00:00.34 bitrate=6169.1kbits/s speed=0.00545x elapsed=0:01:02.34    \nframe=   19 fps=0.3 q=37.0 size=     256KiB time=00:00:00.34 bitrate=6169.1kbits/s speed=0.00541x elapsed=0:01:02.89    \nframe=   19 fps=0.3 q=37.0 size=     256KiB time=00:00:00.34 bitrate=6169.1kbits/s speed=0.00536x elapsed=0:01:03.43    \nframe=   19 fps=0.3 q=37.0 size=     256KiB time=00:00:00.34 bitrate=6169.1kbits/s speed=0.00531x elapsed=0:01:04.00    \nframe=   20 fps=0.3 q=37.0 size=     256KiB time=00:00:00.36 bitrate=5826.4kbits/s speed=0.00558x elapsed=0:01:04.56    \nframe=   20 fps=0.3 q=37.0 size=     256KiB time=00:00:00.36 bitrate=5826.4kbits/s speed=0.00553x elapsed=0:01:05.14    \nframe=   20 fps=0.3 q=37.0 size=     256KiB time=00:00:00.36 bitrate=5826.4kbits/s speed=0.00548x elapsed=0:01:05.70    \nframe=   21 fps=0.3 q=36.9 size=     256KiB time=00:00:00.38 bitrate=5519.7kbits/s speed=0.00573x elapsed=0:01:06.27    \nframe=   21 fps=0.3 q=36.9 size=     256KiB time=00:00:00.38 bitrate=5519.7kbits/s speed=0.00568x elapsed=0:01:06.87    \nframe=   21 fps=0.3 q=36.9 size=     256KiB time=00:00:00.38 bitrate=5519.7kbits/s speed=0.00564x elapsed=0:01:07.41    \nframe=   21 fps=0.3 q=36.9 size=     256KiB time=00:00:00.38 bitrate=5519.7kbits/s speed=0.00559x elapsed=0:01:07.97    \nframe=   22 fps=0.3 q=28.0 size=     256KiB time=00:00:00.40 bitrate=5243.8kbits/s speed=0.00584x elapsed=0:01:08.52    \nframe=   22 fps=0.3 q=28.0 size=     256KiB time=00:00:00.40 bitrate=5243.8kbits/s speed=0.00579x elapsed=0:01:09.11    \nframe=   23 fps=0.3 q=35.8 size=     512KiB time=00:00:00.42 bitrate=9987.3kbits/s speed=0.00603x elapsed=0:01:09.68    \nframe=   23 fps=0.3 q=35.8 size=     512KiB time=00:00:00.42 bitrate=9987.3kbits/s speed=0.00598x elapsed=0:01:10.20    \nframe=   23 fps=0.3 q=35.8 size=     512KiB time=00:00:00.42 bitrate=9987.3kbits/s speed=0.00593x elapsed=0:01:10.79    \nframe=   23 fps=0.3 q=35.8 size=     512KiB time=00:00:00.42 bitrate=9987.3kbits/s speed=0.00589x elapsed=0:01:11.32    \nframe=   23 fps=0.3 q=35.8 size=     512KiB time=00:00:00.42 bitrate=9987.3kbits/s speed=0.00585x elapsed=0:01:11.85    \nframe=   23 fps=0.3 q=35.8 size=     512KiB time=00:00:00.42 bitrate=9987.3kbits/s speed=0.0058x elapsed=0:01:12.45    \nframe=   24 fps=0.3 q=37.0 size=     512KiB time=00:00:00.44 bitrate=9533.3kbits/s speed=0.00603x elapsed=0:01:13.00    \nframe=   24 fps=0.3 q=37.0 size=     512KiB time=00:00:00.44 bitrate=9533.3kbits/s speed=0.00598x elapsed=0:01:13.57    \nframe=   24 fps=0.3 q=37.0 size=     512KiB time=00:00:00.44 bitrate=9533.3kbits/s speed=0.00594x elapsed=0:01:14.11    \nframe=   24 fps=0.3 q=37.0 size=     512KiB time=00:00:00.44 bitrate=9533.3kbits/s speed=0.00589x elapsed=0:01:14.65    \nframe=   24 fps=0.3 q=37.0 size=     512KiB time=00:00:00.44 bitrate=9533.3kbits/s speed=0.00585x elapsed=0:01:15.21    \nframe=   25 fps=0.3 q=36.9 size=     512KiB time=00:00:00.46 bitrate=9118.8kbits/s speed=0.00607x elapsed=0:01:15.74    \nframe=   25 fps=0.3 q=36.9 size=     512KiB time=00:00:00.46 bitrate=9118.8kbits/s speed=0.00603x elapsed=0:01:16.30    \nframe=   26 fps=0.3 q=37.0 size=     512KiB time=00:00:00.48 bitrate=8738.9kbits/s speed=0.00624x elapsed=0:01:16.87    \nframe=   26 fps=0.3 q=37.0 size=     512KiB time=00:00:00.48 bitrate=8738.9kbits/s speed=0.0062x elapsed=0:01:17.39    \nframe=   26 fps=0.3 q=37.0 size=     512KiB time=00:00:00.48 bitrate=8738.9kbits/s speed=0.00616x elapsed=0:01:17.93    \nframe=   27 fps=0.3 q=28.0 size=     512KiB time=00:00:00.50 bitrate=8389.3kbits/s speed=0.00637x elapsed=0:01:18.46    \nframe=   27 fps=0.3 q=28.0 size=     512KiB time=00:00:00.50 bitrate=8389.3kbits/s speed=0.00633x elapsed=0:01:19.00    \nframe=   27 fps=0.3 q=28.0 size=     512KiB time=00:00:00.50 bitrate=8389.3kbits/s speed=0.00629x elapsed=0:01:19.52    \nframe=   29 fps=0.4 q=36.9 size=     512KiB time=00:00:00.54 bitrate=7767.9kbits/s speed=0.00675x elapsed=0:01:20.05    \nframe=   29 fps=0.4 q=36.9 size=     512KiB time=00:00:00.54 bitrate=7767.9kbits/s speed=0.0067x elapsed=0:01:20.58    \nframe=   29 fps=0.4 q=36.9 size=     512KiB time=00:00:00.54 bitrate=7767.9kbits/s speed=0.00666x elapsed=0:01:21.10    \nframe=   30 fps=0.4 q=36.1 size=     512KiB time=00:00:00.56 bitrate=7490.5kbits/s speed=0.00686x elapsed=0:01:21.64    \nframe=   30 fps=0.4 q=36.1 size=     512KiB time=00:00:00.56 bitrate=7490.5kbits/s speed=0.00681x elapsed=0:01:22.23    \nframe=   30 fps=0.4 q=36.1 size=     512KiB time=00:00:00.56 bitrate=7490.5kbits/s speed=0.00677x elapsed=0:01:22.77    \nframe=   30 fps=0.4 q=36.1 size=     512KiB time=00:00:00.56 bitrate=7490.5kbits/s speed=0.00672x elapsed=0:01:23.30    \nframe=   31 fps=0.4 q=36.0 size=     512KiB time=00:00:00.58 bitrate=7232.2kbits/s speed=0.00692x elapsed=0:01:23.84    \nframe=   31 fps=0.4 q=36.0 size=     512KiB time=00:00:00.58 bitrate=7232.2kbits/s speed=0.00687x elapsed=0:01:24.37    \nframe=   32 fps=0.4 q=27.5 size=     512KiB time=00:00:00.60 bitrate=6991.1kbits/s speed=0.00707x elapsed=0:01:24.92    \nframe=   32 fps=0.4 q=27.5 size=     512KiB time=00:00:00.60 bitrate=6991.1kbits/s speed=0.00702x elapsed=0:01:25.47    \nframe=   32 fps=0.4 q=27.5 size=     512KiB time=00:00:00.60 bitrate=6991.1kbits/s speed=0.00697x elapsed=0:01:26.04    \nframe=   32 fps=0.4 q=27.5 size=     512KiB time=00:00:00.60 bitrate=6991.1kbits/s speed=0.00693x elapsed=0:01:26.61    \nframe=   32 fps=0.4 q=27.5 size=     512KiB time=00:00:00.60 bitrate=6991.1kbits/s speed=0.00688x elapsed=0:01:27.16    \nframe=   32 fps=0.4 q=27.5 size=     512KiB time=00:00:00.60 bitrate=6991.1kbits/s speed=0.00683x elapsed=0:01:27.81    \nframe=   32 fps=0.4 q=27.5 size=     512KiB time=00:00:00.60 bitrate=6991.1kbits/s speed=0.00679x elapsed=0:01:28.37    \nframe=   32 fps=0.4 q=27.5 size=     512KiB time=00:00:00.60 bitrate=6991.1kbits/s speed=0.00674x elapsed=0:01:29.01    \nframe=   32 fps=0.4 q=27.5 size=     512KiB time=00:00:00.60 bitrate=6991.1kbits/s speed=0.0067x elapsed=0:01:29.60    \nframe=   33 fps=0.4 q=34.5 size=     512KiB time=00:00:00.62 bitrate=6765.6kbits/s speed=0.00688x elapsed=0:01:30.14    \nframe=   33 fps=0.4 q=34.5 size=     512KiB time=00:00:00.62 bitrate=6765.6kbits/s speed=0.00684x elapsed=0:01:30.69    \nframe=   34 fps=0.4 q=36.0 size=     512KiB time=00:00:00.64 bitrate=6554.1kbits/s speed=0.00702x elapsed=0:01:31.22    \nframe=   34 fps=0.4 q=36.0 size=     512KiB time=00:00:00.64 bitrate=6554.1kbits/s speed=0.00697x elapsed=0:01:31.76    \nframe=   35 fps=0.4 q=27.3 size=     512KiB time=00:00:00.66 bitrate=6355.5kbits/s speed=0.00715x elapsed=0:01:32.33    \nframe=   35 fps=0.4 q=27.3 size=     512KiB time=00:00:00.66 bitrate=6355.5kbits/s speed=0.00711x elapsed=0:01:32.86    \nframe=   36 fps=0.4 q=34.7 size=     512KiB time=00:00:00.68 bitrate=6168.6kbits/s speed=0.00728x elapsed=0:01:33.38    \nframe=   37 fps=0.4 q=34.9 size=     512KiB time=00:00:00.70 bitrate=5992.4kbits/s speed=0.00745x elapsed=0:01:33.91    \nframe=   37 fps=0.4 q=34.9 size=     512KiB time=00:00:00.70 bitrate=5992.4kbits/s speed=0.00741x elapsed=0:01:34.43    \nframe=   38 fps=0.4 q=34.8 size=     512KiB time=00:00:00.72 bitrate=5825.9kbits/s speed=0.00758x elapsed=0:01:34.95    \nframe=   38 fps=0.4 q=34.8 size=     512KiB time=00:00:00.72 bitrate=5825.9kbits/s speed=0.00754x elapsed=0:01:35.48    \nframe=   39 fps=0.4 q=34.9 size=     512KiB time=00:00:00.74 bitrate=5668.5kbits/s speed=0.00771x elapsed=0:01:35.99    \nframe=   40 fps=0.4 q=27.2 size=     512KiB time=00:00:00.76 bitrate=5519.3kbits/s speed=0.00787x elapsed=0:01:36.51    \nframe=   41 fps=0.4 q=33.8 size=     768KiB time=00:00:00.78 bitrate=8066.4kbits/s speed=0.00804x elapsed=0:01:37.05    \nframe=   42 fps=0.4 q=34.9 size=     768KiB time=00:00:00.80 bitrate=7864.8kbits/s speed=0.0082x elapsed=0:01:37.59    \nframe=   42 fps=0.4 q=34.9 size=     768KiB time=00:00:00.80 bitrate=7864.8kbits/s speed=0.00815x elapsed=0:01:38.13    \nframe=   42 fps=0.4 q=34.9 size=     768KiB time=00:00:00.80 bitrate=7864.8kbits/s speed=0.00811x elapsed=0:01:38.66    \nframe=   43 fps=0.4 q=34.0 size=     768KiB time=00:00:00.82 bitrate=7672.9kbits/s speed=0.00827x elapsed=0:01:39.16    \nframe=   44 fps=0.4 q=33.9 size=     768KiB time=00:00:00.84 bitrate=7490.2kbits/s speed=0.00843x elapsed=0:01:39.69    \nframe=   45 fps=0.4 q=26.8 size=     768KiB time=00:00:00.86 bitrate=7316.1kbits/s speed=0.00858x elapsed=0:01:40.23    \nframe=   46 fps=0.5 q=33.4 size=     768KiB time=00:00:00.88 bitrate=7149.8kbits/s speed=0.00873x elapsed=0:01:40.79    \nframe=   46 fps=0.5 q=33.4 size=     768KiB time=00:00:00.88 bitrate=7149.8kbits/s speed=0.00869x elapsed=0:01:41.31    \nframe=   46 fps=0.5 q=33.4 size=     768KiB time=00:00:00.88 bitrate=7149.8kbits/s speed=0.00864x elapsed=0:01:41.85    \nframe=   46 fps=0.4 q=33.4 size=     768KiB time=00:00:00.88 bitrate=7149.8kbits/s speed=0.00859x elapsed=0:01:42.40    \nframe=   47 fps=0.5 q=33.9 size=     768KiB time=00:00:00.90 bitrate=6990.9kbits/s speed=0.00874x elapsed=0:01:42.93    \nframe=   47 fps=0.5 q=33.9 size=     768KiB time=00:00:00.90 bitrate=6990.9kbits/s speed=0.0087x elapsed=0:01:43.49    \nframe=   47 fps=0.5 q=33.9 size=     768KiB time=00:00:00.90 bitrate=6990.9kbits/s speed=0.00865x elapsed=0:01:44.05    \nframe=   47 fps=0.4 q=33.9 size=     768KiB time=00:00:00.90 bitrate=6990.9kbits/s speed=0.0086x elapsed=0:01:44.61    \nframe=   47 fps=0.4 q=33.9 size=     768KiB time=00:00:00.90 bitrate=6990.9kbits/s speed=0.00856x elapsed=0:01:45.16    \nframe=   49 fps=0.5 q=26.8 size=     768KiB time=00:00:00.94 bitrate=6693.4kbits/s speed=0.00889x elapsed=0:01:45.72    \nframe=   49 fps=0.5 q=26.8 size=     768KiB time=00:00:00.94 bitrate=6693.4kbits/s speed=0.00885x elapsed=0:01:46.27    \nframe=   49 fps=0.5 q=26.8 size=     768KiB time=00:00:00.94 bitrate=6693.4kbits/s speed=0.0088x elapsed=0:01:46.82    \nframe=   50 fps=0.5 q=31.7 size=     768KiB time=00:00:00.96 bitrate=6554.0kbits/s speed=0.00894x elapsed=0:01:47.38    \nframe=   50 fps=0.5 q=31.7 size=     768KiB time=00:00:00.96 bitrate=6554.0kbits/s speed=0.00889x elapsed=0:01:47.94    \nframe=   51 fps=0.5 q=34.0 size=     768KiB time=00:00:00.98 bitrate=6420.2kbits/s speed=0.00903x elapsed=0:01:48.49    \nframe=   51 fps=0.5 q=34.0 size=     768KiB time=00:00:00.98 bitrate=6420.2kbits/s speed=0.00899x elapsed=0:01:49.05    \nframe=   51 fps=0.5 q=34.0 size=     768KiB time=00:00:00.98 bitrate=6420.2kbits/s speed=0.00894x elapsed=0:01:49.60    \nframe=   52 fps=0.5 q=33.9 size=     768KiB time=00:00:01.00 bitrate=6291.8kbits/s speed=0.00908x elapsed=0:01:50.15    \nframe=   52 fps=0.5 q=33.9 size=     768KiB time=00:00:01.00 bitrate=6291.8kbits/s speed=0.00903x elapsed=0:01:50.73    \nframe=   52 fps=0.5 q=33.9 size=     768KiB time=00:00:01.00 bitrate=6291.8kbits/s speed=0.00899x elapsed=0:01:51.26    \nframe=   53 fps=0.5 q=33.9 size=     768KiB time=00:00:01.02 bitrate=6168.4kbits/s speed=0.00912x elapsed=0:01:51.81    \nframe=   54 fps=0.5 q=26.8 size=     768KiB time=00:00:01.04 bitrate=6049.8kbits/s speed=0.00926x elapsed=0:01:52.35    \nframe=   55 fps=0.5 q=31.6 size=     768KiB time=00:00:01.06 bitrate=5935.7kbits/s speed=0.00939x elapsed=0:01:52.89    \nframe=   55 fps=0.5 q=31.6 size=     768KiB time=00:00:01.06 bitrate=5935.7kbits/s speed=0.00935x elapsed=0:01:53.42    \nframe=   55 fps=0.5 q=31.6 size=     768KiB time=00:00:01.06 bitrate=5935.7kbits/s speed=0.0093x elapsed=0:01:53.94    \nframe=   56 fps=0.5 q=33.7 size=     768KiB time=00:00:01.08 bitrate=5825.7kbits/s speed=0.00944x elapsed=0:01:54.46    \nframe=   56 fps=0.5 q=33.7 size=     768KiB time=00:00:01.08 bitrate=5825.7kbits/s speed=0.00939x elapsed=0:01:54.99    \nframe=   56 fps=0.5 q=33.7 size=     768KiB time=00:00:01.08 bitrate=5825.7kbits/s speed=0.00935x elapsed=0:01:55.51    \nframe=   56 fps=0.5 q=33.7 size=     768KiB time=00:00:01.08 bitrate=5825.7kbits/s speed=0.00931x elapsed=0:01:56.05    \nframe=   56 fps=0.5 q=33.7 size=     768KiB time=00:00:01.08 bitrate=5825.7kbits/s speed=0.00926x elapsed=0:01:56.64    \nframe=   56 fps=0.5 q=33.7 size=     768KiB time=00:00:01.08 bitrate=5825.7kbits/s speed=0.00921x elapsed=0:01:57.22    \nframe=   57 fps=0.5 q=32.9 size=     768KiB time=00:00:01.10 bitrate=5719.8kbits/s speed=0.00934x elapsed=0:01:57.75    \nframe=   57 fps=0.5 q=32.9 size=     768KiB time=00:00:01.10 bitrate=5719.8kbits/s speed=0.0093x elapsed=0:01:58.31    \nframe=   57 fps=0.5 q=32.9 size=     768KiB time=00:00:01.10 bitrate=5719.8kbits/s speed=0.00926x elapsed=0:01:58.83    \nframe=   58 fps=0.5 q=32.9 size=     768KiB time=00:00:01.12 bitrate=5617.7kbits/s speed=0.00938x elapsed=0:01:59.37    \nframe=   58 fps=0.5 q=32.9 size=     768KiB time=00:00:01.12 bitrate=5617.7kbits/s speed=0.00934x elapsed=0:01:59.95    \nframe=   59 fps=0.5 q=26.7 size=     768KiB time=00:00:01.14 bitrate=5519.1kbits/s speed=0.00946x elapsed=0:02:00.47    \nframe=   59 fps=0.5 q=26.7 size=     768KiB time=00:00:01.14 bitrate=5519.1kbits/s speed=0.00942x elapsed=0:02:01.04    \nframe=   60 fps=0.5 q=32.9 size=    1024KiB time=00:00:01.16 bitrate=7231.9kbits/s speed=0.00954x elapsed=0:02:01.58    \nframe=   60 fps=0.5 q=32.9 size=    1024KiB time=00:00:01.16 bitrate=7231.9kbits/s speed=0.0095x elapsed=0:02:02.10    \nframe=   60 fps=0.5 q=32.9 size=    1024KiB time=00:00:01.16 bitrate=7231.9kbits/s speed=0.00946x elapsed=0:02:02.62    \nframe=   60 fps=0.5 q=32.9 size=    1024KiB time=00:00:01.16 bitrate=7231.9kbits/s speed=0.00941x elapsed=0:02:03.22    \nframe=   61 fps=0.5 q=33.0 size=    1024KiB time=00:00:01.18 bitrate=7109.3kbits/s speed=0.00953x elapsed=0:02:03.80    \nframe=   61 fps=0.5 q=33.0 size=    1024KiB time=00:00:01.18 bitrate=7109.3kbits/s speed=0.00949x elapsed=0:02:04.38    \nframe=   61 fps=0.5 q=33.0 size=    1024KiB time=00:00:01.18 bitrate=7109.3kbits/s speed=0.00945x elapsed=0:02:04.90    \nframe=   61 fps=0.5 q=33.0 size=    1024KiB time=00:00:01.18 bitrate=7109.3kbits/s speed=0.00941x elapsed=0:02:05.42    \nframe=   62 fps=0.5 q=32.6 size=    1024KiB time=00:00:01.20 bitrate=6990.8kbits/s speed=0.00952x elapsed=0:02:05.99    \nframe=   62 fps=0.5 q=32.6 size=    1024KiB time=00:00:01.20 bitrate=6990.8kbits/s speed=0.00948x elapsed=0:02:06.56    \nframe=   62 fps=0.5 q=32.6 size=    1024KiB time=00:00:01.20 bitrate=6990.8kbits/s speed=0.00944x elapsed=0:02:07.07    \nframe=   63 fps=0.5 q=32.9 size=    1024KiB time=00:00:01.22 bitrate=6876.2kbits/s speed=0.00956x elapsed=0:02:07.65    \nframe=   63 fps=0.5 q=32.9 size=    1024KiB time=00:00:01.22 bitrate=6876.2kbits/s speed=0.00952x elapsed=0:02:08.18    \nframe=   64 fps=0.5 q=26.6 size=    1024KiB time=00:00:01.24 bitrate=6765.3kbits/s speed=0.00963x elapsed=0:02:08.72    \nframe=   64 fps=0.5 q=26.6 size=    1024KiB time=00:00:01.24 bitrate=6765.3kbits/s speed=0.00959x elapsed=0:02:09.24    \nframe=   64 fps=0.5 q=26.6 size=    1024KiB time=00:00:01.24 bitrate=6765.3kbits/s speed=0.00956x elapsed=0:02:09.76    \nframe=   65 fps=0.5 q=32.7 size=    1024KiB time=00:00:01.26 bitrate=6657.9kbits/s speed=0.00967x elapsed=0:02:10.29    \nframe=   65 fps=0.5 q=32.7 size=    1024KiB time=00:00:01.26 bitrate=6657.9kbits/s speed=0.00963x elapsed=0:02:10.81    \nframe=   66 fps=0.5 q=32.9 size=    1024KiB time=00:00:01.28 bitrate=6553.9kbits/s speed=0.00975x elapsed=0:02:11.33    \nframe=   66 fps=0.5 q=32.9 size=    1024KiB time=00:00:01.28 bitrate=6553.9kbits/s speed=0.00971x elapsed=0:02:11.88    \nframe=   66 fps=0.5 q=32.9 size=    1024KiB time=00:00:01.28 bitrate=6553.9kbits/s speed=0.00967x elapsed=0:02:12.41    \nframe=   66 fps=0.5 q=32.9 size=    1024KiB time=00:00:01.28 bitrate=6553.9kbits/s speed=0.00963x elapsed=0:02:12.96    \nframe=   66 fps=0.5 q=32.9 size=    1024KiB time=00:00:01.28 bitrate=6553.9kbits/s speed=0.00959x elapsed=0:02:13.50    \nframe=   66 fps=0.5 q=32.9 size=    1024KiB time=00:00:01.28 bitrate=6553.9kbits/s speed=0.00955x elapsed=0:02:14.04    \nframe=   67 fps=0.5 q=32.5 size=    1024KiB time=00:00:01.30 bitrate=6453.0kbits/s speed=0.00966x elapsed=0:02:14.56    \nframe=   67 fps=0.5 q=32.5 size=    1024KiB time=00:00:01.30 bitrate=6453.0kbits/s speed=0.00962x elapsed=0:02:15.08    \nframe=   67 fps=0.5 q=32.5 size=    1024KiB time=00:00:01.30 bitrate=6453.0kbits/s speed=0.00958x elapsed=0:02:15.65    \nframe=   68 fps=0.5 q=32.9 size=    1024KiB time=00:00:01.32 bitrate=6355.3kbits/s speed=0.00969x elapsed=0:02:16.22    \nframe=   68 fps=0.5 q=32.9 size=    1024KiB time=00:00:01.32 bitrate=6355.3kbits/s speed=0.00965x elapsed=0:02:16.78    \nframe=   68 fps=0.5 q=32.9 size=    1024KiB time=00:00:01.32 bitrate=6355.3kbits/s speed=0.00961x elapsed=0:02:17.34    \nframe=   69 fps=0.5 q=26.3 size=    1024KiB time=00:00:01.34 bitrate=6260.4kbits/s speed=0.00972x elapsed=0:02:17.90    \nframe=   69 fps=0.5 q=26.3 size=    1024KiB time=00:00:01.34 bitrate=6260.4kbits/s speed=0.00968x elapsed=0:02:18.45    \nframe=   69 fps=0.5 q=26.3 size=    1024KiB time=00:00:01.34 bitrate=6260.4kbits/s speed=0.00964x elapsed=0:02:18.98    \nframe=   70 fps=0.5 q=32.6 size=    1024KiB time=00:00:01.36 bitrate=6168.4kbits/s speed=0.00975x elapsed=0:02:19.53    \nframe=   71 fps=0.5 q=32.9 size=    1024KiB time=00:00:01.38 bitrate=6079.0kbits/s speed=0.00985x elapsed=0:02:20.09    \nframe=   71 fps=0.5 q=32.9 size=    1024KiB time=00:00:01.38 bitrate=6079.0kbits/s speed=0.00981x elapsed=0:02:20.62    \nframe=   71 fps=0.5 q=32.9 size=    1024KiB time=00:00:01.38 bitrate=6079.0kbits/s speed=0.00977x elapsed=0:02:21.18    \nframe=   71 fps=0.5 q=32.9 size=    1024KiB time=00:00:01.38 bitrate=6079.0kbits/s speed=0.00974x elapsed=0:02:21.73    \nframe=   71 fps=0.5 q=32.9 size=    1024KiB time=00:00:01.38 bitrate=6079.0kbits/s speed=0.0097x elapsed=0:02:22.25    \nframe=   71 fps=0.5 q=32.9 size=    1024KiB time=00:00:01.38 bitrate=6079.0kbits/s speed=0.00966x elapsed=0:02:22.78    \nframe=   72 fps=0.5 q=32.5 size=    1024KiB time=00:00:01.40 bitrate=5992.1kbits/s speed=0.00977x elapsed=0:02:23.32    \nframe=   73 fps=0.5 q=32.9 size=    1024KiB time=00:00:01.42 bitrate=5907.7kbits/s speed=0.00987x elapsed=0:02:23.85    \nframe=   73 fps=0.5 q=32.9 size=    1024KiB time=00:00:01.42 bitrate=5907.7kbits/s speed=0.00984x elapsed=0:02:24.36    \nframe=   73 fps=0.5 q=32.9 size=    1024KiB time=00:00:01.42 bitrate=5907.7kbits/s speed=0.0098x elapsed=0:02:24.88    \nframe=   75 fps=0.5 q=31.9 size=    1280KiB time=00:00:01.46 bitrate=7182.3kbits/s speed=0.01x elapsed=0:02:25.40    \nframe=   76 fps=0.5 q=33.0 size=    1280KiB time=00:00:01.48 bitrate=7085.2kbits/s speed=0.0101x elapsed=0:02:25.91    \nframe=   76 fps=0.5 q=33.0 size=    1280KiB time=00:00:01.48 bitrate=7085.2kbits/s speed=0.0101x elapsed=0:02:26.43    \nframe=   76 fps=0.5 q=33.0 size=    1280KiB time=00:00:01.48 bitrate=7085.2kbits/s speed=0.0101x elapsed=0:02:26.95    \nframe=   76 fps=0.5 q=33.0 size=    1280KiB time=00:00:01.48 bitrate=7085.2kbits/s speed=0.01x elapsed=0:02:27.46    \nframe=   77 fps=0.5 q=33.9 size=    1280KiB time=00:00:01.50 bitrate=6990.7kbits/s speed=0.0101x elapsed=0:02:28.00    \nframe=   77 fps=0.5 q=33.9 size=    1280KiB time=00:00:01.50 bitrate=6990.7kbits/s speed=0.0101x elapsed=0:02:28.56    \nframe=   78 fps=0.5 q=34.0 size=    1280KiB time=00:00:01.52 bitrate=6898.8kbits/s speed=0.0102x elapsed=0:02:29.09    \nframe=   78 fps=0.5 q=34.0 size=    1280KiB time=00:00:01.52 bitrate=6898.8kbits/s speed=0.0102x elapsed=0:02:29.65    \nframe=   79 fps=0.5 q=26.4 size=    1280KiB time=00:00:01.54 bitrate=6809.2kbits/s speed=0.0103x elapsed=0:02:30.19    \nframe=   80 fps=0.5 q=32.9 size=    1280KiB time=00:00:01.56 bitrate=6721.9kbits/s speed=0.0104x elapsed=0:02:30.71    \nframe=   80 fps=0.5 q=32.9 size=    1280KiB time=00:00:01.56 bitrate=6721.9kbits/s speed=0.0103x elapsed=0:02:31.25    \nframe=   81 fps=0.5 q=33.9 size=    1280KiB time=00:00:01.58 bitrate=6636.8kbits/s speed=0.0104x elapsed=0:02:31.79    \nframe=   81 fps=0.5 q=33.9 size=    1280KiB time=00:00:01.58 bitrate=6636.8kbits/s speed=0.0104x elapsed=0:02:32.33    \nframe=   81 fps=0.5 q=33.9 size=    1280KiB time=00:00:01.58 bitrate=6636.8kbits/s speed=0.0103x elapsed=0:02:32.86    \nframe=   82 fps=0.5 q=34.0 size=    1280KiB time=00:00:01.60 bitrate=6553.8kbits/s speed=0.0104x elapsed=0:02:33.38    \nframe=   82 fps=0.5 q=34.0 size=    1280KiB time=00:00:01.60 bitrate=6553.8kbits/s speed=0.0104x elapsed=0:02:33.90    \nframe=   82 fps=0.5 q=34.0 size=    1280KiB time=00:00:01.60 bitrate=6553.8kbits/s speed=0.0104x elapsed=0:02:34.43    \nframe=   82 fps=0.5 q=34.0 size=    1280KiB time=00:00:01.60 bitrate=6553.8kbits/s speed=0.0103x elapsed=0:02:35.08    \nframe=   82 fps=0.5 q=34.0 size=    1280KiB time=00:00:01.60 bitrate=6553.8kbits/s speed=0.0103x elapsed=0:02:35.67    \nframe=   83 fps=0.5 q=34.0 size=    1280KiB time=00:00:01.62 bitrate=6472.9kbits/s speed=0.0104x elapsed=0:02:36.20    \nframe=   83 fps=0.5 q=34.0 size=    1280KiB time=00:00:01.62 bitrate=6472.9kbits/s speed=0.0103x elapsed=0:02:36.73    \nframe=   83 fps=0.5 q=34.0 size=    1280KiB time=00:00:01.62 bitrate=6472.9kbits/s speed=0.0103x elapsed=0:02:37.25    \nframe=   83 fps=0.5 q=34.0 size=    1280KiB time=00:00:01.62 bitrate=6472.9kbits/s speed=0.0103x elapsed=0:02:37.76    \nframe=   84 fps=0.5 q=26.6 size=    1280KiB time=00:00:01.64 bitrate=6394.0kbits/s speed=0.0104x elapsed=0:02:38.32    \nframe=   85 fps=0.5 q=33.8 size=    1536KiB time=00:00:01.66 bitrate=7580.3kbits/s speed=0.0104x elapsed=0:02:38.86    \nframe=   86 fps=0.5 q=35.0 size=    1536KiB time=00:00:01.68 bitrate=7490.0kbits/s speed=0.0105x elapsed=0:02:39.43    \nframe=   86 fps=0.5 q=35.0 size=    1536KiB time=00:00:01.68 bitrate=7490.0kbits/s speed=0.0105x elapsed=0:02:39.98    \nframe=   86 fps=0.5 q=35.0 size=    1536KiB time=00:00:01.68 bitrate=7490.0kbits/s speed=0.0105x elapsed=0:02:40.52    \nframe=   86 fps=0.5 q=35.0 size=    1536KiB time=00:00:01.68 bitrate=7490.0kbits/s speed=0.0104x elapsed=0:02:41.05    \nframe=   86 fps=0.5 q=35.0 size=    1536KiB time=00:00:01.68 bitrate=7490.0kbits/s speed=0.0104x elapsed=0:02:41.59    \nframe=   87 fps=0.5 q=35.0 size=    1536KiB time=00:00:01.70 bitrate=7401.9kbits/s speed=0.0105x elapsed=0:02:42.15    \nframe=   87 fps=0.5 q=35.0 size=    1536KiB time=00:00:01.70 bitrate=7401.9kbits/s speed=0.0104x elapsed=0:02:42.70    \nframe=   88 fps=0.5 q=34.0 size=    1536KiB time=00:00:01.72 bitrate=7315.9kbits/s speed=0.0105x elapsed=0:02:43.23    \nframe=   88 fps=0.5 q=34.0 size=    1536KiB time=00:00:01.72 bitrate=7315.9kbits/s speed=0.0105x elapsed=0:02:43.76    \nframe=   89 fps=0.5 q=26.6 size=    1536KiB time=00:00:01.74 bitrate=7231.8kbits/s speed=0.0106x elapsed=0:02:44.31    \nframe=   89 fps=0.5 q=26.6 size=    1536KiB time=00:00:01.74 bitrate=7231.8kbits/s speed=0.0106x elapsed=0:02:44.90    \nframe=   90 fps=0.5 q=32.1 size=    1536KiB time=00:00:01.76 bitrate=7149.6kbits/s speed=0.0106x elapsed=0:02:45.46    \nframe=   90 fps=0.5 q=32.1 size=    1536KiB time=00:00:01.76 bitrate=7149.6kbits/s speed=0.0106x elapsed=0:02:46.05    \nframe=   90 fps=0.5 q=32.1 size=    1536KiB time=00:00:01.76 bitrate=7149.6kbits/s speed=0.0106x elapsed=0:02:46.61    \nframe=   90 fps=0.5 q=32.1 size=    1536KiB time=00:00:01.76 bitrate=7149.6kbits/s speed=0.0105x elapsed=0:02:47.19    \nframe=   90 fps=0.5 q=32.1 size=    1536KiB time=00:00:01.76 bitrate=7149.6kbits/s speed=0.0105x elapsed=0:02:47.73    \nframe=   90 fps=0.5 q=32.1 size=    1536KiB time=00:00:01.76 bitrate=7149.6kbits/s speed=0.0105x elapsed=0:02:48.30    \nframe=   91 fps=0.5 q=34.9 size=    1536KiB time=00:00:01.78 bitrate=7069.2kbits/s speed=0.0105x elapsed=0:02:48.85    \nframe=   91 fps=0.5 q=34.9 size=    1536KiB time=00:00:01.78 bitrate=7069.2kbits/s speed=0.0105x elapsed=0:02:49.36    \nframe=   91 fps=0.5 q=34.9 size=    1536KiB time=00:00:01.78 bitrate=7069.2kbits/s speed=0.0105x elapsed=0:02:49.89    \nframe=   91 fps=0.5 q=34.9 size=    1536KiB time=00:00:01.78 bitrate=7069.2kbits/s speed=0.0104x elapsed=0:02:50.45    \nframe=   92 fps=0.5 q=35.0 size=    1536KiB time=00:00:01.80 bitrate=6990.7kbits/s speed=0.0105x elapsed=0:02:50.99    \nframe=   93 fps=0.5 q=26.6 size=    1536KiB time=00:00:01.82 bitrate=6913.9kbits/s speed=0.0106x elapsed=0:02:51.54    \nframe=   93 fps=0.5 q=26.6 size=    1536KiB time=00:00:01.82 bitrate=6913.9kbits/s speed=0.0106x elapsed=0:02:52.09    \nframe=   93 fps=0.5 q=26.6 size=    1536KiB time=00:00:01.82 bitrate=6913.9kbits/s speed=0.0105x elapsed=0:02:52.63    \nframe=   93 fps=0.5 q=26.6 size=    1536KiB time=00:00:01.82 bitrate=6913.9kbits/s speed=0.0105x elapsed=0:02:53.18    \nframe=   93 fps=0.5 q=26.6 size=    1536KiB time=00:00:01.82 bitrate=6913.9kbits/s speed=0.0105x elapsed=0:02:53.74    \nframe=   94 fps=0.5 q=33.9 size=    1536KiB time=00:00:01.84 bitrate=6838.7kbits/s speed=0.0106x elapsed=0:02:54.36    \nframe=   94 fps=0.5 q=33.9 size=    1536KiB time=00:00:01.84 bitrate=6838.7kbits/s speed=0.0105x elapsed=0:02:55.01    \nframe=   94 fps=0.5 q=33.9 size=    1536KiB time=00:00:01.84 bitrate=6838.7kbits/s speed=0.0105x elapsed=0:02:55.61    \nframe=   94 fps=0.5 q=33.9 size=    1536KiB time=00:00:01.84 bitrate=6838.7kbits/s speed=0.0104x elapsed=0:02:56.16    \nframe=   94 fps=0.5 q=33.9 size=    1536KiB time=00:00:01.84 bitrate=6838.7kbits/s speed=0.0104x elapsed=0:02:56.72    \nframe=   95 fps=0.5 q=34.9 size=    1536KiB time=00:00:01.86 bitrate=6765.2kbits/s speed=0.0105x elapsed=0:02:57.31    \nframe=   96 fps=0.5 q=26.9 size=    1536KiB time=00:00:01.88 bitrate=6693.2kbits/s speed=0.0106x elapsed=0:02:57.93    \nframe=   96 fps=0.5 q=26.9 size=    1536KiB time=00:00:01.88 bitrate=6693.2kbits/s speed=0.0105x elapsed=0:02:58.55    \nframe=   96 fps=0.5 q=26.9 size=    1536KiB time=00:00:01.88 bitrate=6693.2kbits/s speed=0.0105x elapsed=0:02:59.10    \nframe=   96 fps=0.5 q=26.9 size=    1536KiB time=00:00:01.88 bitrate=6693.2kbits/s speed=0.0105x elapsed=0:02:59.66    \nframe=   96 fps=0.5 q=26.9 size=    1536KiB time=00:00:01.88 bitrate=6693.2kbits/s speed=0.0104x elapsed=0:03:00.20    \nframe=   97 fps=0.5 q=28.5 size=    1792KiB time=00:00:01.90 bitrate=7726.5kbits/s speed=0.0105x elapsed=0:03:00.74    \nframe=   98 fps=0.5 q=35.0 size=    1792KiB time=00:00:01.92 bitrate=7646.1kbits/s speed=0.0106x elapsed=0:03:01.27    \nframe=   98 fps=0.5 q=35.0 size=    1792KiB time=00:00:01.92 bitrate=7646.1kbits/s speed=0.0106x elapsed=0:03:01.81    \nframe=   99 fps=0.5 q=35.9 size=    1792KiB time=00:00:01.94 bitrate=7567.2kbits/s speed=0.0106x elapsed=0:03:02.33    \nframe=   99 fps=0.5 q=35.9 size=    1792KiB time=00:00:01.94 bitrate=7567.2kbits/s speed=0.0106x elapsed=0:03:02.88    \nframe=  101 fps=0.6 q=27.1 size=    1792KiB time=00:00:01.98 bitrate=7414.4kbits/s speed=0.0108x elapsed=0:03:03.38    \nframe=  102 fps=0.6 q=30.0 size=    1792KiB time=00:00:02.00 bitrate=7340.2kbits/s speed=0.0109x elapsed=0:03:03.92    \nframe=  103 fps=0.6 q=36.0 size=    1792KiB time=00:00:02.02 bitrate=7267.5kbits/s speed=0.011x elapsed=0:03:04.44    \nframe=  103 fps=0.6 q=36.0 size=    1792KiB time=00:00:02.02 bitrate=7267.5kbits/s speed=0.0109x elapsed=0:03:04.96    \nframe=  104 fps=0.6 q=35.8 size=    1792KiB time=00:00:02.04 bitrate=7196.3kbits/s speed=0.011x elapsed=0:03:05.49    \nframe=  104 fps=0.6 q=35.8 size=    1792KiB time=00:00:02.04 bitrate=7196.3kbits/s speed=0.011x elapsed=0:03:05.99    \nframe=  106 fps=0.6 q=27.1 size=    1792KiB time=00:00:02.08 bitrate=7057.9kbits/s speed=0.0112x elapsed=0:03:06.51    \nframe=  107 fps=0.6 q=33.6 size=    2048KiB time=00:00:02.10 bitrate=7989.3kbits/s speed=0.0112x elapsed=0:03:07.04    \nframe=  108 fps=0.6 q=36.0 size=    2048KiB time=00:00:02.12 bitrate=7913.9kbits/s speed=0.0113x elapsed=0:03:07.57    \nframe=  109 fps=0.6 q=36.0 size=    2048KiB time=00:00:02.14 bitrate=7840.0kbits/s speed=0.0114x elapsed=0:03:08.10    \nframe=  110 fps=0.6 q=36.0 size=    2048KiB time=00:00:02.16 bitrate=7767.4kbits/s speed=0.0114x elapsed=0:03:08.65    \nframe=  111 fps=0.6 q=27.0 size=    2048KiB time=00:00:02.18 bitrate=7696.1kbits/s speed=0.0115x elapsed=0:03:09.17    \nframe=  113 fps=0.6 q=35.9 size=    2048KiB time=00:00:02.22 bitrate=7557.5kbits/s speed=0.0117x elapsed=0:03:09.70    \nframe=  114 fps=0.6 q=34.9 size=    2048KiB time=00:00:02.24 bitrate=7490.0kbits/s speed=0.0118x elapsed=0:03:10.21    \nframe=  114 fps=0.6 q=34.9 size=    2048KiB time=00:00:02.24 bitrate=7490.0kbits/s speed=0.0117x elapsed=0:03:10.73    \nframe=  115 fps=0.6 q=35.0 size=    2048KiB time=00:00:02.26 bitrate=7423.7kbits/s speed=0.0118x elapsed=0:03:11.24    \nframe=  116 fps=0.6 q=26.7 size=    2048KiB time=00:00:02.28 bitrate=7358.6kbits/s speed=0.0119x elapsed=0:03:11.76    \nframe=  118 fps=0.6 q=34.9 size=    2048KiB time=00:00:02.32 bitrate=7231.7kbits/s speed=0.0121x elapsed=0:03:12.29    \nframe=  118 fps=0.6 q=34.9 size=    2048KiB time=00:00:02.32 bitrate=7231.7kbits/s speed=0.012x elapsed=0:03:12.81    \nframe=  119 fps=0.6 q=33.9 size=    2048KiB time=00:00:02.34 bitrate=7169.9kbits/s speed=0.0121x elapsed=0:03:13.32    \nframe=  119 fps=0.6 q=33.9 size=    2048KiB time=00:00:02.34 bitrate=7169.9kbits/s speed=0.0121x elapsed=0:03:13.84    \nframe=  119 fps=0.6 q=33.9 size=    2048KiB time=00:00:02.34 bitrate=7169.9kbits/s speed=0.012x elapsed=0:03:14.37    \nframe=  121 fps=0.6 q=26.6 size=    2048KiB time=00:00:02.38 bitrate=7049.4kbits/s speed=0.0122x elapsed=0:03:14.89    \nframe=  122 fps=0.6 q=32.9 size=    2304KiB time=00:00:02.40 bitrate=7864.5kbits/s speed=0.0123x elapsed=0:03:15.42    \nframe=  123 fps=0.6 q=34.9 size=    2304KiB time=00:00:02.42 bitrate=7799.5kbits/s speed=0.0123x elapsed=0:03:15.95    \nframe=  124 fps=0.6 q=34.8 size=    2304KiB time=00:00:02.44 bitrate=7735.5kbits/s speed=0.0124x elapsed=0:03:16.47    \nframe=  125 fps=0.6 q=34.8 size=    2304KiB time=00:00:02.46 bitrate=7672.7kbits/s speed=0.0125x elapsed=0:03:16.99    \nframe=  125 fps=0.6 q=34.8 size=    2304KiB time=00:00:02.46 bitrate=7672.7kbits/s speed=0.0125x elapsed=0:03:17.52    \nframe=  125 fps=0.6 q=34.8 size=    2304KiB time=00:00:02.46 bitrate=7672.7kbits/s speed=0.0124x elapsed=0:03:18.04    \nframe=  126 fps=0.6 q=26.8 size=    2304KiB time=00:00:02.48 bitrate=7610.8kbits/s speed=0.0125x elapsed=0:03:18.56    \nframe=  127 fps=0.6 q=33.8 size=    2304KiB time=00:00:02.50 bitrate=7549.9kbits/s speed=0.0126x elapsed=0:03:19.09    \nframe=  128 fps=0.6 q=34.9 size=    2304KiB time=00:00:02.52 bitrate=7490.0kbits/s speed=0.0126x elapsed=0:03:19.62    \nframe=  128 fps=0.6 q=34.9 size=    2304KiB time=00:00:02.52 bitrate=7490.0kbits/s speed=0.0126x elapsed=0:03:20.15    \nframe=  129 fps=0.6 q=35.0 size=    2304KiB time=00:00:02.52 bitrate=7490.0kbits/s speed=0.0126x elapsed=0:03:20.68    \nframe=  130 fps=0.6 q=35.0 size=    2304KiB time=00:00:02.56 bitrate=7372.9kbits/s speed=0.0127x elapsed=0:03:21.22    \nframe=  130 fps=0.6 q=35.0 size=    2304KiB time=00:00:02.56 bitrate=7372.9kbits/s speed=0.0127x elapsed=0:03:21.74    \nframe=  132 fps=0.7 q=33.9 size=    2304KiB time=00:00:02.60 bitrate=7259.5kbits/s speed=0.0129x elapsed=0:03:22.27    \nframe=  132 fps=0.7 q=33.9 size=    2304KiB time=00:00:02.60 bitrate=7259.5kbits/s speed=0.0128x elapsed=0:03:22.82    \nframe=  133 fps=0.7 q=35.0 size=    2304KiB time=00:00:02.62 bitrate=7204.1kbits/s speed=0.0129x elapsed=0:03:23.34    \nframe=  133 fps=0.7 q=35.0 size=    2304KiB time=00:00:02.62 bitrate=7204.1kbits/s speed=0.0129x elapsed=0:03:23.85    \nframe=  133 fps=0.7 q=35.0 size=    2304KiB time=00:00:02.62 bitrate=7204.1kbits/s speed=0.0128x elapsed=0:03:24.37    \nframe=  134 fps=0.7 q=34.0 size=    2304KiB time=00:00:02.64 bitrate=7149.5kbits/s speed=0.0129x elapsed=0:03:24.89    \nframe=  135 fps=0.7 q=33.9 size=    2304KiB time=00:00:02.66 bitrate=7095.8kbits/s speed=0.0129x elapsed=0:03:25.40    \nframe=  136 fps=0.7 q=26.5 size=    2304KiB time=00:00:02.68 bitrate=7042.8kbits/s speed=0.013x elapsed=0:03:25.93    \nframe=  137 fps=0.7 q=33.6 size=    2560KiB time=00:00:02.70 bitrate=7767.4kbits/s speed=0.0131x elapsed=0:03:26.44    \nframe=  137 fps=0.7 q=33.6 size=    2560KiB time=00:00:02.70 bitrate=7767.4kbits/s speed=0.013x elapsed=0:03:26.96    \nframe=  137 fps=0.7 q=33.6 size=    2560KiB time=00:00:02.70 bitrate=7767.4kbits/s speed=0.013x elapsed=0:03:27.50    \nframe=  137 fps=0.7 q=33.6 size=    2560KiB time=00:00:02.70 bitrate=7767.4kbits/s speed=0.013x elapsed=0:03:28.02    \nframe=  138 fps=0.7 q=34.9 size=    2560KiB time=00:00:02.72 bitrate=7710.2kbits/s speed=0.013x elapsed=0:03:28.56    \nframe=  138 fps=0.7 q=34.9 size=    2560KiB time=00:00:02.72 bitrate=7710.2kbits/s speed=0.013x elapsed=0:03:29.08    \nframe=  139 fps=0.7 q=34.0 size=    2560KiB time=00:00:02.74 bitrate=7654.0kbits/s speed=0.0131x elapsed=0:03:29.58    \nframe=  139 fps=0.7 q=34.0 size=    2560KiB time=00:00:02.74 bitrate=7654.0kbits/s speed=0.013x elapsed=0:03:30.11    \nframe=  139 fps=0.7 q=34.0 size=    2560KiB time=00:00:02.74 bitrate=7654.0kbits/s speed=0.013x elapsed=0:03:30.64    \nframe=  141 fps=0.7 q=30.9 size=    2560KiB time=00:00:02.78 bitrate=7543.8kbits/s speed=0.0132x elapsed=0:03:31.17    \nframe=  142 fps=0.7 q=32.9 size=    2560KiB time=00:00:02.80 bitrate=7490.0kbits/s speed=0.0132x elapsed=0:03:31.70    \nframe=  142 fps=0.7 q=32.9 size=    2560KiB time=00:00:02.80 bitrate=7490.0kbits/s speed=0.0132x elapsed=0:03:32.27    \nframe=  142 fps=0.7 q=32.9 size=    2560KiB time=00:00:02.80 bitrate=7490.0kbits/s speed=0.0132x elapsed=0:03:32.79    \nframe=  142 fps=0.7 q=32.9 size=    2560KiB time=00:00:02.80 bitrate=7490.0kbits/s speed=0.0131x elapsed=0:03:33.32    \nframe=  142 fps=0.7 q=32.9 size=    2560KiB time=00:00:02.80 bitrate=7490.0kbits/s speed=0.0131x elapsed=0:03:33.92    \nframe=  142 fps=0.7 q=32.9 size=    2560KiB time=00:00:02.80 bitrate=7490.0kbits/s speed=0.0131x elapsed=0:03:34.50    \nframe=  142 fps=0.7 q=32.9 size=    2560KiB time=00:00:02.80 bitrate=7490.0kbits/s speed=0.013x elapsed=0:03:35.06    \nframe=  144 fps=0.7 q=32.9 size=    2560KiB time=00:00:02.84 bitrate=7384.5kbits/s speed=0.0132x elapsed=0:03:35.58    \nframe=  144 fps=0.7 q=32.9 size=    2560KiB time=00:00:02.84 bitrate=7384.5kbits/s speed=0.0131x elapsed=0:03:36.11    \nframe=  145 fps=0.7 q=26.5 size=    2560KiB time=00:00:02.86 bitrate=7332.8kbits/s speed=0.0132x elapsed=0:03:36.64    \nframe=  146 fps=0.7 q=31.2 size=    2560KiB time=00:00:02.88 bitrate=7281.9kbits/s speed=0.0133x elapsed=0:03:37.18    \nframe=  146 fps=0.7 q=31.2 size=    2560KiB time=00:00:02.88 bitrate=7281.9kbits/s speed=0.0132x elapsed=0:03:37.70    \nframe=  147 fps=0.7 q=34.0 size=    2560KiB time=00:00:02.90 bitrate=7231.7kbits/s speed=0.0133x elapsed=0:03:38.25    \nframe=  148 fps=0.7 q=33.9 size=    2560KiB time=00:00:02.92 bitrate=7182.1kbits/s speed=0.0133x elapsed=0:03:38.80    \nframe=  148 fps=0.7 q=33.9 size=    2560KiB time=00:00:02.92 bitrate=7182.1kbits/s speed=0.0133x elapsed=0:03:39.36    \nframe=  148 fps=0.7 q=33.9 size=    2560KiB time=00:00:02.92 bitrate=7182.1kbits/s speed=0.0133x elapsed=0:03:39.93    \nframe=  148 fps=0.7 q=33.9 size=    2560KiB time=00:00:02.92 bitrate=7182.1kbits/s speed=0.0132x elapsed=0:03:40.47    \nframe=  148 fps=0.7 q=33.9 size=    2560KiB time=00:00:02.92 bitrate=7182.1kbits/s speed=0.0132x elapsed=0:03:41.03    \nframe=  149 fps=0.7 q=26.4 size=    2560KiB time=00:00:02.94 bitrate=7133.3kbits/s speed=0.0133x elapsed=0:03:41.56    \nframe=  149 fps=0.7 q=26.4 size=    2560KiB time=00:00:02.94 bitrate=7133.3kbits/s speed=0.0132x elapsed=0:03:42.10    \nframe=  149 fps=0.7 q=26.4 size=    2560KiB time=00:00:02.94 bitrate=7133.3kbits/s speed=0.0132x elapsed=0:03:42.63    \nframe=  150 fps=0.7 q=30.5 size=    2816KiB time=00:00:02.96 bitrate=7793.6kbits/s speed=0.0133x elapsed=0:03:43.19    \nframe=  151 fps=0.7 q=33.7 size=    2816KiB time=00:00:02.98 bitrate=7741.3kbits/s speed=0.0133x elapsed=0:03:43.71    \nframe=  152 fps=0.7 q=33.8 size=    2816KiB time=00:00:03.00 bitrate=7689.7kbits/s speed=0.0134x elapsed=0:03:44.26    \nframe=  152 fps=0.7 q=33.8 size=    2816KiB time=00:00:03.00 bitrate=7689.7kbits/s speed=0.0133x elapsed=0:03:44.79    \nframe=  152 fps=0.7 q=33.8 size=    2816KiB time=00:00:03.00 bitrate=7689.7kbits/s speed=0.0133x elapsed=0:03:45.36    \nframe=  152 fps=0.7 q=33.8 size=    2816KiB time=00:00:03.00 bitrate=7689.7kbits/s speed=0.0133x elapsed=0:03:45.87    \nframe=  153 fps=0.7 q=32.9 size=    2816KiB time=00:00:03.02 bitrate=7638.7kbits/s speed=0.0133x elapsed=0:03:46.44    \nframe=  153 fps=0.7 q=32.9 size=    2816KiB time=00:00:03.02 bitrate=7638.7kbits/s speed=0.0133x elapsed=0:03:47.00    \nframe=  153 fps=0.7 q=32.9 size=    2816KiB time=00:00:03.02 bitrate=7638.7kbits/s speed=0.0133x elapsed=0:03:47.55    \nframe=  153 fps=0.7 q=32.9 size=    2816KiB time=00:00:03.02 bitrate=7638.7kbits/s speed=0.0132x elapsed=0:03:48.16    \nframe=  153 fps=0.7 q=32.9 size=    2816KiB time=00:00:03.02 bitrate=7638.7kbits/s speed=0.0132x elapsed=0:03:48.68    \nframe=  153 fps=0.7 q=32.9 size=    2816KiB time=00:00:03.02 bitrate=7638.7kbits/s speed=0.0132x elapsed=0:03:49.20    \nframe=  153 fps=0.7 q=32.9 size=    2816KiB time=00:00:03.02 bitrate=7638.7kbits/s speed=0.0131x elapsed=0:03:49.73    \nframe=  153 fps=0.7 q=32.9 size=    2816KiB time=00:00:03.02 bitrate=7638.7kbits/s speed=0.0131x elapsed=0:03:50.26    \nframe=  154 fps=0.7 q=26.4 size=    2816KiB time=00:00:03.04 bitrate=7588.5kbits/s speed=0.0132x elapsed=0:03:50.81    \nframe=  154 fps=0.7 q=26.4 size=    2816KiB time=00:00:03.04 bitrate=7588.5kbits/s speed=0.0131x elapsed=0:03:51.35    \nframe=  155 fps=0.7 q=27.3 size=    2816KiB time=00:00:03.06 bitrate=7538.9kbits/s speed=0.0132x elapsed=0:03:51.88    \nframe=  156 fps=0.7 q=35.0 size=    2816KiB time=00:00:03.08 bitrate=7489.9kbits/s speed=0.0133x elapsed=0:03:52.41    \nframe=  157 fps=0.7 q=34.7 size=    2816KiB time=00:00:03.10 bitrate=7441.6kbits/s speed=0.0133x elapsed=0:03:52.95    \nframe=  158 fps=0.7 q=35.0 size=    2816KiB time=00:00:03.12 bitrate=7393.9kbits/s speed=0.0134x elapsed=0:03:53.48    \nframe=  158 fps=0.7 q=35.0 size=    2816KiB time=00:00:03.12 bitrate=7393.9kbits/s speed=0.0133x elapsed=0:03:54.01    \nframe=  160 fps=0.7 q=33.3 size=    2816KiB time=00:00:03.16 bitrate=7300.3kbits/s speed=0.0135x elapsed=0:03:54.55    \nframe=  160 fps=0.7 q=33.3 size=    2816KiB time=00:00:03.16 bitrate=7300.3kbits/s speed=0.0134x elapsed=0:03:55.06    \nframe=  161 fps=0.7 q=34.9 size=    2816KiB time=00:00:03.18 bitrate=7254.4kbits/s speed=0.0135x elapsed=0:03:55.59    \nframe=  162 fps=0.7 q=35.0 size=    2816KiB time=00:00:03.20 bitrate=7209.1kbits/s speed=0.0136x elapsed=0:03:56.14    \nframe=  162 fps=0.7 q=35.0 size=    2816KiB time=00:00:03.20 bitrate=7209.1kbits/s speed=0.0135x elapsed=0:03:56.66    \nframe=  163 fps=0.7 q=35.0 size=    2816KiB time=00:00:03.22 bitrate=7164.3kbits/s speed=0.0136x elapsed=0:03:57.19    \nframe=  164 fps=0.7 q=26.6 size=    2816KiB time=00:00:03.24 bitrate=7120.1kbits/s speed=0.0136x elapsed=0:03:57.73    \nframe=  165 fps=0.7 q=33.6 size=    3072KiB time=00:00:03.26 bitrate=7719.7kbits/s speed=0.0137x elapsed=0:03:58.27    \nframe=  165 fps=0.7 q=33.6 size=    3072KiB time=00:00:03.26 bitrate=7719.7kbits/s speed=0.0137x elapsed=0:03:58.80    \nframe=  166 fps=0.7 q=35.0 size=    3072KiB time=00:00:03.28 bitrate=7672.6kbits/s speed=0.0137x elapsed=0:03:59.33    \nframe=  166 fps=0.7 q=35.0 size=    3072KiB time=00:00:03.28 bitrate=7672.6kbits/s speed=0.0137x elapsed=0:03:59.87    \nframe=  166 fps=0.7 q=35.0 size=    3072KiB time=00:00:03.28 bitrate=7672.6kbits/s speed=0.0136x elapsed=0:04:00.42    \nframe=  167 fps=0.7 q=35.0 size=    3072KiB time=00:00:03.30 bitrate=7626.1kbits/s speed=0.0137x elapsed=0:04:00.97    \nframe=  168 fps=0.7 q=26.2 size=    3072KiB time=00:00:03.32 bitrate=7580.2kbits/s speed=0.0137x elapsed=0:04:01.51    \nframe=  168 fps=0.7 q=26.2 size=    3072KiB time=00:00:03.32 bitrate=7580.2kbits/s speed=0.0137x elapsed=0:04:02.05    \nframe=  169 fps=0.7 q=32.1 size=    3072KiB time=00:00:03.34 bitrate=7534.8kbits/s speed=0.0138x elapsed=0:04:02.60    \nframe=  169 fps=0.7 q=32.1 size=    3072KiB time=00:00:03.34 bitrate=7534.8kbits/s speed=0.0137x elapsed=0:04:03.14    \nframe=  171 fps=0.7 q=33.9 size=    3072KiB time=00:00:03.38 bitrate=7445.6kbits/s speed=0.0139x elapsed=0:04:03.69    \nframe=  171 fps=0.7 q=33.9 size=    3072KiB time=00:00:03.38 bitrate=7445.6kbits/s speed=0.0138x elapsed=0:04:04.22    \nframe=  171 fps=0.7 q=33.9 size=    3072KiB time=00:00:03.38 bitrate=7445.6kbits/s speed=0.0138x elapsed=0:04:04.78    \nframe=  171 fps=0.7 q=33.9 size=    3072KiB time=00:00:03.38 bitrate=7445.6kbits/s speed=0.0138x elapsed=0:04:05.36    \nframe=  172 fps=0.7 q=33.9 size=    3072KiB time=00:00:03.40 bitrate=7401.8kbits/s speed=0.0138x elapsed=0:04:05.87    \nframe=  172 fps=0.7 q=33.9 size=    3072KiB time=00:00:03.40 bitrate=7401.8kbits/s speed=0.0138x elapsed=0:04:06.40    \nframe=  173 fps=0.7 q=26.5 size=    3072KiB time=00:00:03.42 bitrate=7358.5kbits/s speed=0.0138x elapsed=0:04:06.94    \nframe=  173 fps=0.7 q=26.5 size=    3072KiB time=00:00:03.42 bitrate=7358.5kbits/s speed=0.0138x elapsed=0:04:07.47    \nframe=  174 fps=0.7 q=32.7 size=    3072KiB time=00:00:03.44 bitrate=7315.7kbits/s speed=0.0139x elapsed=0:04:08.02    \nframe=  175 fps=0.7 q=34.8 size=    3072KiB time=00:00:03.46 bitrate=7273.5kbits/s speed=0.0139x elapsed=0:04:08.57    \nframe=  176 fps=0.7 q=34.8 size=    3072KiB time=00:00:03.46 bitrate=7273.5kbits/s speed=0.0139x elapsed=0:04:09.11    \nframe=  176 fps=0.7 q=34.8 size=    3072KiB time=00:00:03.48 bitrate=7231.7kbits/s speed=0.0139x elapsed=0:04:09.66    \nframe=  176 fps=0.7 q=34.8 size=    3072KiB time=00:00:03.48 bitrate=7231.7kbits/s speed=0.0139x elapsed=0:04:10.20    \nframe=  176 fps=0.7 q=34.8 size=    3072KiB time=00:00:03.48 bitrate=7231.7kbits/s speed=0.0139x elapsed=0:04:10.73    \nframe=  176 fps=0.7 q=34.8 size=    3072KiB time=00:00:03.48 bitrate=7231.7kbits/s speed=0.0138x elapsed=0:04:11.28    \nframe=  176 fps=0.7 q=34.8 size=    3072KiB time=00:00:03.48 bitrate=7231.7kbits/s speed=0.0138x elapsed=0:04:11.80    \nframe=  177 fps=0.7 q=26.4 size=    3072KiB time=00:00:03.50 bitrate=7190.3kbits/s speed=0.0139x elapsed=0:04:12.34    \nframe=  177 fps=0.7 q=26.4 size=    3072KiB time=00:00:03.50 bitrate=7190.3kbits/s speed=0.0138x elapsed=0:04:12.90    \nframe=  177 fps=0.7 q=26.4 size=    3072KiB time=00:00:03.50 bitrate=7190.3kbits/s speed=0.0138x elapsed=0:04:13.42    \nframe=  178 fps=0.7 q=31.7 size=    3328KiB time=00:00:03.52 bitrate=7745.3kbits/s speed=0.0139x elapsed=0:04:13.94    \nframe=  179 fps=0.7 q=34.0 size=    3328KiB time=00:00:03.54 bitrate=7701.5kbits/s speed=0.0139x elapsed=0:04:14.47    \nframe=  179 fps=0.7 q=34.0 size=    3328KiB time=00:00:03.54 bitrate=7701.5kbits/s speed=0.0139x elapsed=0:04:15.01    \nframe=  179 fps=0.7 q=34.0 size=    3328KiB time=00:00:03.54 bitrate=7701.5kbits/s speed=0.0139x elapsed=0:04:15.53    \nframe=  180 fps=0.7 q=33.9 size=    3328KiB time=00:00:03.56 bitrate=7658.2kbits/s speed=0.0139x elapsed=0:04:16.08    \nframe=  180 fps=0.7 q=33.9 size=    3328KiB time=00:00:03.56 bitrate=7658.2kbits/s speed=0.0139x elapsed=0:04:16.61    \nframe=  180 fps=0.7 q=33.9 size=    3328KiB time=00:00:03.56 bitrate=7658.2kbits/s speed=0.0138x elapsed=0:04:17.12    \nframe=  181 fps=0.7 q=33.7 size=    3328KiB time=00:00:03.56 bitrate=7658.2kbits/s speed=0.0138x elapsed=0:04:17.66    \nframe=  181 fps=0.7 q=33.7 size=    3328KiB time=00:00:03.58 bitrate=7615.5kbits/s speed=0.0139x elapsed=0:04:18.20    \nframe=  181 fps=0.7 q=33.7 size=    3328KiB time=00:00:03.58 bitrate=7615.5kbits/s speed=0.0138x elapsed=0:04:18.73    \nframe=  181 fps=0.7 q=33.7 size=    3328KiB time=00:00:03.58 bitrate=7615.5kbits/s speed=0.0138x elapsed=0:04:19.29    \nframe=  182 fps=0.7 q=26.2 size=    3328KiB time=00:00:03.60 bitrate=7573.1kbits/s speed=0.0139x elapsed=0:04:19.83    \nframe=  182 fps=0.7 q=26.2 size=    3328KiB time=00:00:03.60 bitrate=7573.1kbits/s speed=0.0138x elapsed=0:04:20.38    \nframe=  182 fps=0.7 q=26.2 size=    3328KiB time=00:00:03.60 bitrate=7573.1kbits/s speed=0.0138x elapsed=0:04:20.93    \nframe=  183 fps=0.7 q=32.3 size=    3328KiB time=00:00:03.62 bitrate=7531.3kbits/s speed=0.0138x elapsed=0:04:21.48    \nframe=  184 fps=0.7 q=35.0 size=    3328KiB time=00:00:03.64 bitrate=7489.9kbits/s speed=0.0139x elapsed=0:04:22.04    \nframe=  184 fps=0.7 q=35.0 size=    3328KiB time=00:00:03.64 bitrate=7489.9kbits/s speed=0.0139x elapsed=0:04:22.62    \nframe=  185 fps=0.7 q=35.0 size=    3328KiB time=00:00:03.66 bitrate=7449.0kbits/s speed=0.0139x elapsed=0:04:23.24    \nframe=  185 fps=0.7 q=35.0 size=    3328KiB time=00:00:03.66 bitrate=7449.0kbits/s speed=0.0139x elapsed=0:04:23.81    \nframe=  185 fps=0.7 q=35.0 size=    3328KiB time=00:00:03.66 bitrate=7449.0kbits/s speed=0.0138x elapsed=0:04:24.33    \nframe=  185 fps=0.7 q=35.0 size=    3328KiB time=00:00:03.66 bitrate=7449.0kbits/s speed=0.0138x elapsed=0:04:24.85    \nframe=  186 fps=0.7 q=26.5 size=    3328KiB time=00:00:03.68 bitrate=7408.5kbits/s speed=0.0139x elapsed=0:04:25.37    \nframe=  186 fps=0.7 q=26.5 size=    3328KiB time=00:00:03.68 bitrate=7408.5kbits/s speed=0.0138x elapsed=0:04:25.89    \nframe=  186 fps=0.7 q=26.5 size=    3328KiB time=00:00:03.68 bitrate=7408.5kbits/s speed=0.0138x elapsed=0:04:26.41    \nframe=  187 fps=0.7 q=32.8 size=    3584KiB time=00:00:03.70 bitrate=7935.3kbits/s speed=0.0139x elapsed=0:04:26.96    \nframe=  188 fps=0.7 q=34.9 size=    3584KiB time=00:00:03.72 bitrate=7892.6kbits/s speed=0.0139x elapsed=0:04:27.55    \nframe=  189 fps=0.7 q=35.0 size=    3584KiB time=00:00:03.74 bitrate=7850.4kbits/s speed=0.014x elapsed=0:04:28.09    \nframe=  189 fps=0.7 q=35.0 size=    3584KiB time=00:00:03.74 bitrate=7850.4kbits/s speed=0.0139x elapsed=0:04:28.63    \nframe=  189 fps=0.7 q=35.0 size=    3584KiB time=00:00:03.74 bitrate=7850.4kbits/s speed=0.0139x elapsed=0:04:29.15    \nframe=  189 fps=0.7 q=35.0 size=    3584KiB time=00:00:03.74 bitrate=7850.4kbits/s speed=0.0139x elapsed=0:04:29.69    \nframe=  189 fps=0.7 q=35.0 size=    3584KiB time=00:00:03.74 bitrate=7850.4kbits/s speed=0.0138x elapsed=0:04:30.26    \nframe=  189 fps=0.7 q=35.0 size=    3584KiB time=00:00:03.74 bitrate=7850.4kbits/s speed=0.0138x elapsed=0:04:30.80    \nframe=  189 fps=0.7 q=35.0 size=    3584KiB time=00:00:03.74 bitrate=7850.4kbits/s speed=0.0138x elapsed=0:04:31.33    \nframe=  191 fps=0.7 q=26.6 size=    3584KiB time=00:00:03.76 bitrate=7808.6kbits/s speed=0.0138x elapsed=0:04:31.88    \nframe=  192 fps=0.7 q=32.8 size=    3584KiB time=00:00:03.80 bitrate=7726.4kbits/s speed=0.0139x elapsed=0:04:32.41    \nframe=  193 fps=0.7 q=35.0 size=    3584KiB time=00:00:03.82 bitrate=7686.0kbits/s speed=0.014x elapsed=0:04:32.97    \nframe=  193 fps=0.7 q=35.0 size=    3584KiB time=00:00:03.82 bitrate=7686.0kbits/s speed=0.014x elapsed=0:04:33.51    \nframe=  193 fps=0.7 q=35.0 size=    3584KiB time=00:00:03.82 bitrate=7686.0kbits/s speed=0.0139x elapsed=0:04:34.04    \nframe=  194 fps=0.7 q=34.9 size=    3584KiB time=00:00:03.84 bitrate=7646.0kbits/s speed=0.014x elapsed=0:04:34.59    \nframe=  194 fps=0.7 q=34.9 size=    3584KiB time=00:00:03.84 bitrate=7646.0kbits/s speed=0.014x elapsed=0:04:35.12    \nframe=  194 fps=0.7 q=34.9 size=    3584KiB time=00:00:03.84 bitrate=7646.0kbits/s speed=0.0139x elapsed=0:04:35.67    \nframe=  194 fps=0.7 q=34.9 size=    3584KiB time=00:00:03.84 bitrate=7646.0kbits/s speed=0.0139x elapsed=0:04:36.25    \nframe=  195 fps=0.7 q=34.9 size=    3584KiB time=00:00:03.86 bitrate=7606.3kbits/s speed=0.0139x elapsed=0:04:36.81    \nframe=  195 fps=0.7 q=34.9 size=    3584KiB time=00:00:03.86 bitrate=7606.3kbits/s speed=0.0139x elapsed=0:04:37.36    \nframe=  195 fps=0.7 q=34.9 size=    3584KiB time=00:00:03.86 bitrate=7606.3kbits/s speed=0.0139x elapsed=0:04:37.89    \nframe=  195 fps=0.7 q=34.9 size=    3584KiB time=00:00:03.86 bitrate=7606.3kbits/s speed=0.0139x elapsed=0:04:38.44    \nframe=  195 fps=0.7 q=34.9 size=    3584KiB time=00:00:03.86 bitrate=7606.3kbits/s speed=0.0138x elapsed=0:04:39.01    \nframe=  195 fps=0.7 q=34.9 size=    3584KiB time=00:00:03.86 bitrate=7606.3kbits/s speed=0.0138x elapsed=0:04:39.64    \nframe=  195 fps=0.7 q=34.9 size=    3584KiB time=00:00:03.86 bitrate=7606.3kbits/s speed=0.0138x elapsed=0:04:40.22    \nframe=  195 fps=0.7 q=34.9 size=    3584KiB time=00:00:03.86 bitrate=7606.3kbits/s speed=0.0137x elapsed=0:04:40.77    \nframe=  195 fps=0.7 q=34.9 size=    3584KiB time=00:00:03.86 bitrate=7606.3kbits/s speed=0.0137x elapsed=0:04:41.31    \nframe=  195 fps=0.7 q=34.9 size=    3584KiB time=00:00:03.86 bitrate=7606.3kbits/s speed=0.0137x elapsed=0:04:41.88    \nframe=  196 fps=0.7 q=26.6 size=    3584KiB time=00:00:03.88 bitrate=7567.1kbits/s speed=0.0137x elapsed=0:04:42.43    \nframe=  196 fps=0.7 q=26.6 size=    3584KiB time=00:00:03.88 bitrate=7567.1kbits/s speed=0.0137x elapsed=0:04:43.03    \nframe=  196 fps=0.7 q=26.6 size=    3584KiB time=00:00:03.88 bitrate=7567.1kbits/s speed=0.0137x elapsed=0:04:43.62    \nframe=  196 fps=0.7 q=26.6 size=    3584KiB time=00:00:03.88 bitrate=7567.1kbits/s speed=0.0137x elapsed=0:04:44.18    \nframe=  197 fps=0.7 q=32.8 size=    3584KiB time=00:00:03.90 bitrate=7528.3kbits/s speed=0.0137x elapsed=0:04:44.73    \nframe=  198 fps=0.7 q=34.9 size=    3584KiB time=00:00:03.92 bitrate=7489.9kbits/s speed=0.0137x elapsed=0:04:45.29    \nframe=  199 fps=0.7 q=34.9 size=    3584KiB time=00:00:03.94 bitrate=7451.9kbits/s speed=0.0138x elapsed=0:04:45.83    \nframe=  199 fps=0.7 q=34.9 size=    3584KiB time=00:00:03.94 bitrate=7451.9kbits/s speed=0.0138x elapsed=0:04:46.35    \nframe=  199 fps=0.7 q=34.9 size=    3584KiB time=00:00:03.94 bitrate=7451.9kbits/s speed=0.0137x elapsed=0:04:46.88    \nframe=  200 fps=0.7 q=35.0 size=    3584KiB time=00:00:03.96 bitrate=7414.3kbits/s speed=0.0138x elapsed=0:04:47.40    \nframe=  200 fps=0.7 q=35.0 size=    3584KiB time=00:00:03.96 bitrate=7414.3kbits/s speed=0.0138x elapsed=0:04:47.92    \nframe=  201 fps=0.7 q=26.8 size=    3584KiB time=00:00:03.98 bitrate=7377.0kbits/s speed=0.0138x elapsed=0:04:48.43    \nframe=  203 fps=0.7 q=35.0 size=    3840KiB time=00:00:04.02 bitrate=7825.3kbits/s speed=0.0139x elapsed=0:04:48.95    \nframe=  203 fps=0.7 q=35.0 size=    3840KiB time=00:00:04.02 bitrate=7825.3kbits/s speed=0.0139x elapsed=0:04:49.47    \nframe=  204 fps=0.7 q=35.9 size=    3840KiB time=00:00:04.04 bitrate=7786.5kbits/s speed=0.0139x elapsed=0:04:49.97    \nframe=  204 fps=0.7 q=35.9 size=    3840KiB time=00:00:04.04 bitrate=7786.5kbits/s speed=0.0139x elapsed=0:04:50.49    \nframe=  206 fps=0.7 q=34.0 size=    3840KiB time=00:00:04.08 bitrate=7710.2kbits/s speed=0.014x elapsed=0:04:51.03    \nframe=  207 fps=0.7 q=36.0 size=    3840KiB time=00:00:04.10 bitrate=7672.6kbits/s speed=0.0141x elapsed=0:04:51.58    \nframe=  208 fps=0.7 q=35.9 size=    3840KiB time=00:00:04.12 bitrate=7635.3kbits/s speed=0.0141x elapsed=0:04:52.11    \nframe=  209 fps=0.7 q=36.0 size=    3840KiB time=00:00:04.14 bitrate=7598.5kbits/s speed=0.0141x elapsed=0:04:52.63    \nframe=  209 fps=0.7 q=36.0 size=    3840KiB time=00:00:04.14 bitrate=7598.5kbits/s speed=0.0141x elapsed=0:04:53.15    \nframe=  211 fps=0.7 q=35.1 size=    4096KiB time=00:00:04.18 bitrate=8027.5kbits/s speed=0.0142x elapsed=0:04:53.69    \nframe=  213 fps=0.7 q=36.1 size=    4096KiB time=00:00:04.22 bitrate=7951.4kbits/s speed=0.0143x elapsed=0:04:54.20    \nframe=  213 fps=0.7 q=36.1 size=    4096KiB time=00:00:04.22 bitrate=7951.4kbits/s speed=0.0143x elapsed=0:04:54.72    \nframe=  214 fps=0.7 q=36.0 size=    4096KiB time=00:00:04.24 bitrate=7913.9kbits/s speed=0.0144x elapsed=0:04:55.23    \nframe=  215 fps=0.7 q=27.3 size=    4096KiB time=00:00:04.26 bitrate=7876.7kbits/s speed=0.0144x elapsed=0:04:55.74    \nframe=  216 fps=0.7 q=35.0 size=    4096KiB time=00:00:04.28 bitrate=7839.9kbits/s speed=0.0144x elapsed=0:04:56.26    \nframe=  218 fps=0.7 q=35.9 size=    4096KiB time=00:00:04.32 bitrate=7767.3kbits/s speed=0.0146x elapsed=0:04:56.78    \nframe=  218 fps=0.7 q=35.9 size=    4096KiB time=00:00:04.32 bitrate=7767.3kbits/s speed=0.0145x elapsed=0:04:57.31    \nframe=  219 fps=0.7 q=36.0 size=    4096KiB time=00:00:04.34 bitrate=7731.5kbits/s speed=0.0146x elapsed=0:04:57.83    \nframe=  221 fps=0.7 q=34.0 size=    4096KiB time=00:00:04.38 bitrate=7660.9kbits/s speed=0.0147x elapsed=0:04:58.35    \nframe=  222 fps=0.7 q=36.0 size=    4096KiB time=00:00:04.40 bitrate=7626.1kbits/s speed=0.0147x elapsed=0:04:58.87    \nframe=  223 fps=0.7 q=36.0 size=    4096KiB time=00:00:04.42 bitrate=7591.6kbits/s speed=0.0148x elapsed=0:04:59.39    \nframe=  225 fps=0.8 q=34.1 size=    4352KiB time=00:00:04.44 bitrate=8029.7kbits/s speed=0.0148x elapsed=0:04:59.90    \nframe=  226 fps=0.8 q=36.0 size=    4352KiB time=00:00:04.48 bitrate=7958.0kbits/s speed=0.0149x elapsed=0:05:00.43    \nframe=  226 fps=0.8 q=36.0 size=    4352KiB time=00:00:04.48 bitrate=7958.0kbits/s speed=0.0149x elapsed=0:05:00.95    \nframe=  227 fps=0.8 q=36.0 size=    4352KiB time=00:00:04.50 bitrate=7922.7kbits/s speed=0.0149x elapsed=0:05:01.46    \nframe=  228 fps=0.8 q=27.2 size=    4352KiB time=00:00:04.52 bitrate=7887.6kbits/s speed=0.015x elapsed=0:05:01.98    \nframe=  229 fps=0.8 q=34.6 size=    4352KiB time=00:00:04.54 bitrate=7852.8kbits/s speed=0.015x elapsed=0:05:02.49    \nframe=  230 fps=0.8 q=36.0 size=    4352KiB time=00:00:04.56 bitrate=7818.4kbits/s speed=0.015x elapsed=0:05:03.01    \nframe=  230 fps=0.8 q=36.0 size=    4352KiB time=00:00:04.56 bitrate=7818.4kbits/s speed=0.015x elapsed=0:05:03.54    \nframe=  230 fps=0.8 q=36.0 size=    4352KiB time=00:00:04.56 bitrate=7818.4kbits/s speed=0.015x elapsed=0:05:04.06    \nframe=  231 fps=0.8 q=36.0 size=    4352KiB time=00:00:04.58 bitrate=7784.3kbits/s speed=0.015x elapsed=0:05:04.57    \nframe=  231 fps=0.8 q=36.0 size=    4352KiB time=00:00:04.58 bitrate=7784.3kbits/s speed=0.015x elapsed=0:05:05.11    \nframe=  232 fps=0.8 q=27.4 size=    4352KiB time=00:00:04.60 bitrate=7750.4kbits/s speed=0.0151x elapsed=0:05:05.63    \nframe=  233 fps=0.8 q=33.0 size=    4352KiB time=00:00:04.62 bitrate=7716.9kbits/s speed=0.0151x elapsed=0:05:06.13    \nframe=  234 fps=0.8 q=35.9 size=    4352KiB time=00:00:04.64 bitrate=7683.6kbits/s speed=0.0151x elapsed=0:05:06.65    \nframe=  234 fps=0.8 q=35.9 size=    4352KiB time=00:00:04.64 bitrate=7683.6kbits/s speed=0.0151x elapsed=0:05:07.17    \nframe=  235 fps=0.8 q=36.0 size=    4352KiB time=00:00:04.66 bitrate=7650.6kbits/s speed=0.0151x elapsed=0:05:07.68    \nframe=  235 fps=0.8 q=36.0 size=    4352KiB time=00:00:04.66 bitrate=7650.6kbits/s speed=0.0151x elapsed=0:05:08.22    \nframe=  237 fps=0.8 q=27.9 size=    4352KiB time=00:00:04.70 bitrate=7585.5kbits/s speed=0.0152x elapsed=0:05:08.77    \nframe=  238 fps=0.8 q=33.4 size=    4608KiB time=00:00:04.72 bitrate=7997.7kbits/s speed=0.0153x elapsed=0:05:09.31    \nframe=  239 fps=0.8 q=36.0 size=    4608KiB time=00:00:04.74 bitrate=7963.9kbits/s speed=0.0153x elapsed=0:05:09.82    \nframe=  239 fps=0.8 q=36.0 size=    4608KiB time=00:00:04.74 bitrate=7963.9kbits/s speed=0.0153x elapsed=0:05:10.35    \nframe=  240 fps=0.8 q=33.8 size=    4608KiB time=00:00:04.76 bitrate=7930.5kbits/s speed=0.0153x elapsed=0:05:10.87    \nframe=  240 fps=0.8 q=33.8 size=    4608KiB time=00:00:04.76 bitrate=7930.5kbits/s speed=0.0153x elapsed=0:05:11.39    \nframe=  240 fps=0.8 q=33.8 size=    4608KiB time=00:00:04.76 bitrate=7930.5kbits/s speed=0.0153x elapsed=0:05:11.91    \nframe=  242 fps=0.8 q=32.8 size=    4608KiB time=00:00:04.80 bitrate=7864.4kbits/s speed=0.0154x elapsed=0:05:12.44    \nframe=  243 fps=0.8 q=35.0 size=    4608KiB time=00:00:04.82 bitrate=7831.8kbits/s speed=0.0154x elapsed=0:05:12.97    \nframe=  244 fps=0.8 q=31.4 size=    4608KiB time=00:00:04.84 bitrate=7799.4kbits/s speed=0.0154x elapsed=0:05:13.50    \nframe=  244 fps=0.8 q=31.4 size=    4608KiB time=00:00:04.84 bitrate=7799.4kbits/s speed=0.0154x elapsed=0:05:14.02    \nframe=  245 fps=0.8 q=31.1 size=    4608KiB time=00:00:04.86 bitrate=7767.3kbits/s speed=0.0155x elapsed=0:05:14.55    \nframe=  245 fps=0.8 q=31.1 size=    4608KiB time=00:00:04.86 bitrate=7767.3kbits/s speed=0.0154x elapsed=0:05:15.10    \nframe=  245 fps=0.8 q=31.1 size=    4608KiB time=00:00:04.86 bitrate=7767.3kbits/s speed=0.0154x elapsed=0:05:15.61    \nframe=  245 fps=0.8 q=31.1 size=    4608KiB time=00:00:04.86 bitrate=7767.3kbits/s speed=0.0154x elapsed=0:05:16.12    \nframe=  246 fps=0.8 q=28.1 size=    4608KiB time=00:00:04.88 bitrate=7735.5kbits/s speed=0.0154x elapsed=0:05:16.64    \nframe=  246 fps=0.8 q=28.1 size=    4608KiB time=00:00:04.88 bitrate=7735.5kbits/s speed=0.0154x elapsed=0:05:17.15    \nframe=  246 fps=0.8 q=28.1 size=    4608KiB time=00:00:04.88 bitrate=7735.5kbits/s speed=0.0154x elapsed=0:05:17.69    \nframe=  246 fps=0.8 q=28.1 size=    4608KiB time=00:00:04.88 bitrate=7735.5kbits/s speed=0.0153x elapsed=0:05:18.22    \nframe=  247 fps=0.8 q=28.3 size=    4608KiB time=00:00:04.90 bitrate=7703.9kbits/s speed=0.0154x elapsed=0:05:18.75    \nframe=  249 fps=0.8 q=28.0 size=    4608KiB time=00:00:04.94 bitrate=7641.5kbits/s speed=0.0155x elapsed=0:05:19.30    \n[mp4 @ 0000020fdaf5aa40] Starting second pass: moving the moov atom to the beginning of the file\n[out#0/mp4 @ 0000020fdafe7d80] video:4811KiB audio:0KiB subtitle:0KiB other streams:0KiB global headers:2KiB muxing overhead: 0.129092%\nframe=  250 fps=0.8 q=30.3 Lsize=    4817KiB time=00:00:04.96 bitrate=7956.6kbits/s speed=0.0155x elapsed=0:05:19.65    \nx265 [info]: frame I:      1, Avg QP:29.07  kb/s: 101134.80\nx265 [info]: frame P:     53, Avg QP:27.29  kb/s: 32920.83\nx265 [info]: frame B:    196, Avg QP:34.40  kb/s: 634.40  \nx265 [info]: Weighted P-Frames: Y:0.0% UV:0.0%\n\nencoded 250 frames in 318.81s (0.78 fps), 7881.12 kb/s, Avg QP:32.87\n",
  "seconds": 320.2376778125763,
  "probe_out": {}
}